STARTFONT 2.1
FONT -Made with Bits'n'Picas by Kreative Software-Untitled-Regular-R-Regular--16-16-75-75-c-80-iso10646-1
SIZE 16 75 75
FONTBOUNDINGBOX 15 16 0 -2
STARTPROPERTIES 10
FAMILY_NAME "Untitled"
WEIGHT_NAME "Regular"
FONT_VERSION "Version 1.0"
COPYRIGHT "Donguri16 Project Authors; Copyright (c) 2026 plastic041@icloud.com"
FOUNDRY "Made with Bits'n'Picas by Kreative Software"
FONT_ASCENT 14
FONT_DESCENT 2
POINT_SIZE 16
X_HEIGHT 8
CAP_HEIGHT 0
ENDPROPERTIES
CHARS 707
STARTCHAR U+0020
ENCODING 32
SWIDTH 533 0
DWIDTH 8 0
BBX 0 0 0 0
BITMAP
ENDCHAR
STARTCHAR U+0021
ENCODING 33
SWIDTH 333 0
DWIDTH 5 0
BBX 1 13 2 -1
BITMAP
80
80
80
80
80
80
80
80
80
00
00
80
80
ENDCHAR
STARTCHAR U+0022
ENCODING 34
SWIDTH 333 0
DWIDTH 5 0
BBX 3 3 1 9
BITMAP
A0
A0
A0
ENDCHAR
STARTCHAR U+0023
ENCODING 35
SWIDTH 533 0
DWIDTH 8 0
BBX 6 11 1 0
BITMAP
48
48
FC
48
48
48
48
48
FC
48
48
ENDCHAR
STARTCHAR U+0024
ENCODING 36
SWIDTH 466 0
DWIDTH 7 0
BBX 5 13 1 -1
BITMAP
20
70
A8
A0
A0
70
28
28
28
A8
A8
70
20
ENDCHAR
STARTCHAR U+0025
ENCODING 37
SWIDTH 533 0
DWIDTH 8 0
BBX 7 12 0 -1
BITMAP
62
92
94
94
68
10
10
2C
52
52
92
8C
ENDCHAR
STARTCHAR U+0026
ENCODING 38
SWIDTH 533 0
DWIDTH 8 0
BBX 7 12 0 -1
BITMAP
38
44
44
44
38
52
8A
8A
84
84
8A
72
ENDCHAR
STARTCHAR U+0027
ENCODING 39
SWIDTH 333 0
DWIDTH 5 0
BBX 1 3 2 9
BITMAP
80
80
80
ENDCHAR
STARTCHAR U+0028
ENCODING 40
SWIDTH 533 0
DWIDTH 8 0
BBX 5 15 1 -2
BITMAP
18
20
40
40
80
80
80
80
80
80
80
40
40
20
18
ENDCHAR
STARTCHAR U+0029
ENCODING 41
SWIDTH 533 0
DWIDTH 8 0
BBX 5 15 2 -2
BITMAP
C0
20
10
10
08
08
08
08
08
08
08
10
10
20
C0
ENDCHAR
STARTCHAR U+002A
ENCODING 42
SWIDTH 533 0
DWIDTH 8 0
BBX 7 7 0 1
BITMAP
10
92
54
38
54
92
10
ENDCHAR
STARTCHAR U+002B
ENCODING 43
SWIDTH 600 0
DWIDTH 9 0
BBX 7 7 1 1
BITMAP
10
10
10
FE
10
10
10
ENDCHAR
STARTCHAR U+002C
ENCODING 44
SWIDTH 333 0
DWIDTH 5 0
BBX 2 3 1 -2
BITMAP
40
40
80
ENDCHAR
STARTCHAR U+002D
ENCODING 45
SWIDTH 533 0
DWIDTH 8 0
BBX 6 1 1 4
BITMAP
FC
ENDCHAR
STARTCHAR U+002E
ENCODING 46
SWIDTH 333 0
DWIDTH 5 0
BBX 1 2 2 -1
BITMAP
80
80
ENDCHAR
STARTCHAR U+002F
ENCODING 47
SWIDTH 466 0
DWIDTH 7 0
BBX 5 13 1 -1
BITMAP
08
08
08
10
10
20
20
20
40
40
80
80
80
ENDCHAR
STARTCHAR U+0030
ENCODING 48
SWIDTH 533 0
DWIDTH 8 0
BBX 6 13 1 -1
BITMAP
78
84
8C
8C
94
94
A4
A4
C4
C4
84
84
78
ENDCHAR
STARTCHAR U+0031
ENCODING 49
SWIDTH 333 0
DWIDTH 5 0
BBX 3 13 1 -1
BITMAP
20
60
A0
20
20
20
20
20
20
20
20
20
20
ENDCHAR
STARTCHAR U+0032
ENCODING 50
SWIDTH 533 0
DWIDTH 8 0
BBX 6 13 1 -1
BITMAP
78
84
84
04
08
10
20
40
40
80
80
80
FC
ENDCHAR
STARTCHAR U+0033
ENCODING 51
SWIDTH 533 0
DWIDTH 8 0
BBX 6 13 1 -1
BITMAP
78
84
84
84
04
38
04
04
84
84
84
84
78
ENDCHAR
STARTCHAR U+0034
ENCODING 52
SWIDTH 533 0
DWIDTH 8 0
BBX 6 13 1 -1
BITMAP
08
88
88
88
88
88
88
88
7C
08
08
08
08
ENDCHAR
STARTCHAR U+0035
ENCODING 53
SWIDTH 533 0
DWIDTH 8 0
BBX 6 13 1 -1
BITMAP
FC
80
80
80
80
F8
04
04
04
84
84
84
78
ENDCHAR
STARTCHAR U+0036
ENCODING 54
SWIDTH 533 0
DWIDTH 8 0
BBX 6 13 1 -1
BITMAP
78
80
80
80
80
F8
84
84
84
84
84
84
78
ENDCHAR
STARTCHAR U+0037
ENCODING 55
SWIDTH 533 0
DWIDTH 8 0
BBX 6 13 1 -1
BITMAP
F8
04
04
04
08
08
10
10
20
20
20
20
20
ENDCHAR
STARTCHAR U+0038
ENCODING 56
SWIDTH 533 0
DWIDTH 8 0
BBX 6 13 1 -1
BITMAP
78
84
84
84
48
30
48
84
84
84
84
84
78
ENDCHAR
STARTCHAR U+0039
ENCODING 57
SWIDTH 533 0
DWIDTH 8 0
BBX 6 13 1 -1
BITMAP
78
84
84
84
84
7C
04
04
04
04
04
08
70
ENDCHAR
STARTCHAR U+003A
ENCODING 58
SWIDTH 333 0
DWIDTH 5 0
BBX 1 10 2 -1
BITMAP
80
80
80
00
00
00
00
80
80
80
ENDCHAR
STARTCHAR U+003B
ENCODING 59
SWIDTH 333 0
DWIDTH 5 0
BBX 3 10 0 -1
BITMAP
20
20
20
00
00
00
00
20
20
C0
ENDCHAR
STARTCHAR U+003C
ENCODING 60
SWIDTH 533 0
DWIDTH 8 0
BBX 5 9 1 0
BITMAP
08
10
20
40
80
40
20
10
08
ENDCHAR
STARTCHAR U+003D
ENCODING 61
SWIDTH 533 0
DWIDTH 8 0
BBX 6 5 1 2
BITMAP
FC
00
00
00
FC
ENDCHAR
STARTCHAR U+003E
ENCODING 62
SWIDTH 533 0
DWIDTH 8 0
BBX 5 9 2 0
BITMAP
80
40
20
10
08
10
20
40
80
ENDCHAR
STARTCHAR U+003F
ENCODING 63
SWIDTH 533 0
DWIDTH 8 0
BBX 6 13 1 -1
BITMAP
78
84
84
84
04
08
10
20
20
20
00
20
20
ENDCHAR
STARTCHAR U+0040
ENCODING 64
SWIDTH 533 0
DWIDTH 8 0
BBX 6 13 1 -1
BITMAP
78
84
9C
A4
A4
A4
A4
A4
AC
94
80
80
78
ENDCHAR
STARTCHAR U+0041
ENCODING 65
SWIDTH 533 0
DWIDTH 8 0
BBX 6 13 1 -1
BITMAP
78
84
84
84
84
FC
84
84
84
84
84
84
84
ENDCHAR
STARTCHAR U+0042
ENCODING 66
SWIDTH 533 0
DWIDTH 8 0
BBX 6 13 1 -1
BITMAP
F0
88
88
88
88
F0
88
84
84
84
84
84
F8
ENDCHAR
STARTCHAR U+0043
ENCODING 67
SWIDTH 533 0
DWIDTH 8 0
BBX 6 13 1 -1
BITMAP
78
84
84
80
80
80
80
80
80
84
84
84
78
ENDCHAR
STARTCHAR U+0044
ENCODING 68
SWIDTH 533 0
DWIDTH 8 0
BBX 6 13 1 -1
BITMAP
F0
88
84
84
84
84
84
84
84
84
84
88
F0
ENDCHAR
STARTCHAR U+0045
ENCODING 69
SWIDTH 533 0
DWIDTH 8 0
BBX 6 13 1 -1
BITMAP
7C
80
80
80
80
FC
80
80
80
80
80
80
7C
ENDCHAR
STARTCHAR U+0046
ENCODING 70
SWIDTH 533 0
DWIDTH 8 0
BBX 6 13 1 -1
BITMAP
7C
80
80
80
80
FC
80
80
80
80
80
80
80
ENDCHAR
STARTCHAR U+0047
ENCODING 71
SWIDTH 533 0
DWIDTH 8 0
BBX 6 13 1 -1
BITMAP
78
84
84
80
80
BC
84
84
84
84
84
8C
74
ENDCHAR
STARTCHAR U+0048
ENCODING 72
SWIDTH 533 0
DWIDTH 8 0
BBX 6 13 1 -1
BITMAP
84
84
84
84
84
84
FC
84
84
84
84
84
84
ENDCHAR
STARTCHAR U+0049
ENCODING 73
SWIDTH 333 0
DWIDTH 5 0
BBX 3 13 1 -1
BITMAP
E0
40
40
40
40
40
40
40
40
40
40
40
E0
ENDCHAR
STARTCHAR U+004A
ENCODING 74
SWIDTH 533 0
DWIDTH 8 0
BBX 5 13 1 -1
BITMAP
78
08
08
08
08
08
08
08
08
88
88
88
70
ENDCHAR
STARTCHAR U+004B
ENCODING 75
SWIDTH 533 0
DWIDTH 8 0
BBX 7 13 1 -1
BITMAP
82
84
88
90
A0
C0
C0
A0
90
88
84
82
82
ENDCHAR
STARTCHAR U+004C
ENCODING 76
SWIDTH 533 0
DWIDTH 8 0
BBX 6 13 1 -1
BITMAP
80
80
80
80
80
80
80
80
80
80
80
80
7C
ENDCHAR
STARTCHAR U+004D
ENCODING 77
SWIDTH 533 0
DWIDTH 8 0
BBX 9 13 0 -1
BITMAP
C180
C180
A280
A280
9480
9480
8880
8880
8080
8080
8080
8080
8080
ENDCHAR
STARTCHAR U+004E
ENCODING 78
SWIDTH 533 0
DWIDTH 8 0
BBX 7 13 1 -1
BITMAP
82
C2
C2
A2
A2
92
92
8A
8A
86
86
82
82
ENDCHAR
STARTCHAR U+004F
ENCODING 79
SWIDTH 533 0
DWIDTH 8 0
BBX 6 13 1 -1
BITMAP
78
84
84
84
84
84
84
84
84
84
84
84
78
ENDCHAR
STARTCHAR U+0050
ENCODING 80
SWIDTH 533 0
DWIDTH 8 0
BBX 6 13 1 -1
BITMAP
F8
84
84
84
84
F8
80
80
80
80
80
80
80
ENDCHAR
STARTCHAR U+0051
ENCODING 81
SWIDTH 533 0
DWIDTH 8 0
BBX 6 14 1 -2
BITMAP
78
84
84
84
84
84
A4
A4
94
94
88
88
74
04
ENDCHAR
STARTCHAR U+0052
ENCODING 82
SWIDTH 533 0
DWIDTH 8 0
BBX 6 13 1 -1
BITMAP
F8
84
84
84
84
F8
90
88
88
84
84
84
84
ENDCHAR
STARTCHAR U+0053
ENCODING 83
SWIDTH 533 0
DWIDTH 8 0
BBX 6 13 1 -1
BITMAP
78
84
84
80
80
78
04
04
04
84
84
84
78
ENDCHAR
STARTCHAR U+0054
ENCODING 84
SWIDTH 533 0
DWIDTH 8 0
BBX 7 13 0 -1
BITMAP
FE
10
10
10
10
10
10
10
10
10
10
10
10
ENDCHAR
STARTCHAR U+0055
ENCODING 85
SWIDTH 533 0
DWIDTH 8 0
BBX 6 13 1 -1
BITMAP
84
84
84
84
84
84
84
84
84
84
84
84
78
ENDCHAR
STARTCHAR U+0056
ENCODING 86
SWIDTH 533 0
DWIDTH 8 0
BBX 7 13 1 -1
BITMAP
82
82
82
82
82
82
44
44
44
28
28
10
10
ENDCHAR
STARTCHAR U+0057
ENCODING 87
SWIDTH 733 0
DWIDTH 11 0
BBX 9 13 1 -1
BITMAP
8080
8080
8080
8080
8080
8080
8080
8880
4900
5500
5500
2200
2200
ENDCHAR
STARTCHAR U+0058
ENCODING 88
SWIDTH 533 0
DWIDTH 8 0
BBX 7 13 0 -1
BITMAP
82
82
44
44
28
10
10
28
44
44
82
82
82
ENDCHAR
STARTCHAR U+0059
ENCODING 89
SWIDTH 533 0
DWIDTH 8 0
BBX 7 13 0 -1
BITMAP
82
82
82
44
44
28
28
10
10
10
10
10
10
ENDCHAR
STARTCHAR U+005A
ENCODING 90
SWIDTH 533 0
DWIDTH 8 0
BBX 6 13 1 -1
BITMAP
FC
04
08
08
10
10
20
20
40
40
80
80
FC
ENDCHAR
STARTCHAR U+005B
ENCODING 91
SWIDTH 533 0
DWIDTH 8 0
BBX 5 15 1 -2
BITMAP
F8
80
80
80
80
80
80
80
80
80
80
80
80
80
F8
ENDCHAR
STARTCHAR U+005C
ENCODING 92
SWIDTH 533 0
DWIDTH 8 0
BBX 5 13 1 -1
BITMAP
80
80
80
40
40
20
20
20
10
10
08
08
08
ENDCHAR
STARTCHAR U+005D
ENCODING 93
SWIDTH 533 0
DWIDTH 8 0
BBX 5 15 2 -2
BITMAP
F8
08
08
08
08
08
08
08
08
08
08
08
08
08
F8
ENDCHAR
STARTCHAR U+005E
ENCODING 94
SWIDTH 466 0
DWIDTH 7 0
BBX 5 3 1 9
BITMAP
20
50
88
ENDCHAR
STARTCHAR U+005F
ENCODING 95
SWIDTH 533 0
DWIDTH 8 0
BBX 6 1 1 -1
BITMAP
FC
ENDCHAR
STARTCHAR U+0060
ENCODING 96
SWIDTH 333 0
DWIDTH 5 0
BBX 3 3 1 9
BITMAP
80
40
20
ENDCHAR
STARTCHAR U+0061
ENCODING 97
SWIDTH 533 0
DWIDTH 8 0
BBX 6 9 1 -1
BITMAP
78
04
04
7C
84
84
84
8C
74
ENDCHAR
STARTCHAR U+0062
ENCODING 98
SWIDTH 533 0
DWIDTH 8 0
BBX 6 12 1 -1
BITMAP
80
80
80
F8
84
84
84
84
84
84
84
F8
ENDCHAR
STARTCHAR U+0063
ENCODING 99
SWIDTH 533 0
DWIDTH 8 0
BBX 6 9 1 -1
BITMAP
78
84
80
80
80
80
80
84
78
ENDCHAR
STARTCHAR U+0064
ENCODING 100
SWIDTH 533 0
DWIDTH 8 0
BBX 6 12 1 -1
BITMAP
04
04
04
7C
84
84
84
84
84
84
8C
74
ENDCHAR
STARTCHAR U+0065
ENCODING 101
SWIDTH 533 0
DWIDTH 8 0
BBX 6 9 1 -1
BITMAP
78
84
84
84
FC
80
80
80
7C
ENDCHAR
STARTCHAR U+0066
ENCODING 102
SWIDTH 466 0
DWIDTH 7 0
BBX 5 13 1 -1
BITMAP
38
40
40
40
F0
40
40
40
40
40
40
40
40
ENDCHAR
STARTCHAR U+0067
ENCODING 103
SWIDTH 533 0
DWIDTH 8 0
BBX 6 10 1 -2
BITMAP
7C
84
84
84
84
8C
74
04
04
F8
ENDCHAR
STARTCHAR U+0068
ENCODING 104
SWIDTH 533 0
DWIDTH 8 0
BBX 6 12 1 -1
BITMAP
80
80
80
B8
C4
84
84
84
84
84
84
84
ENDCHAR
STARTCHAR U+0069
ENCODING 105
SWIDTH 333 0
DWIDTH 5 0
BBX 2 12 1 -1
BITMAP
40
40
00
C0
40
40
40
40
40
40
40
40
ENDCHAR
STARTCHAR U+006A
ENCODING 106
SWIDTH 333 0
DWIDTH 5 0
BBX 4 13 0 -2
BITMAP
10
10
00
30
10
10
10
10
10
10
10
10
E0
ENDCHAR
STARTCHAR U+006B
ENCODING 107
SWIDTH 533 0
DWIDTH 8 0
BBX 6 12 1 -1
BITMAP
80
80
80
80
88
90
A0
C0
C0
A0
90
8C
ENDCHAR
STARTCHAR U+006C
ENCODING 108
SWIDTH 400 0
DWIDTH 6 0
BBX 4 12 1 -1
BITMAP
C0
40
40
40
40
40
40
40
40
40
40
30
ENDCHAR
STARTCHAR U+006D
ENCODING 109
SWIDTH 600 0
DWIDTH 9 0
BBX 7 9 1 -1
BITMAP
AC
D2
92
92
92
92
92
92
92
ENDCHAR
STARTCHAR U+006E
ENCODING 110
SWIDTH 533 0
DWIDTH 8 0
BBX 6 9 1 -1
BITMAP
B8
C4
84
84
84
84
84
84
84
ENDCHAR
STARTCHAR U+006F
ENCODING 111
SWIDTH 533 0
DWIDTH 8 0
BBX 6 9 1 -1
BITMAP
78
84
84
84
84
84
84
84
78
ENDCHAR
STARTCHAR U+0070
ENCODING 112
SWIDTH 533 0
DWIDTH 8 0
BBX 6 10 1 -2
BITMAP
B8
C4
84
84
84
84
F8
80
80
80
ENDCHAR
STARTCHAR U+0071
ENCODING 113
SWIDTH 533 0
DWIDTH 8 0
BBX 6 10 1 -2
BITMAP
7C
84
84
84
84
8C
74
04
04
04
ENDCHAR
STARTCHAR U+0072
ENCODING 114
SWIDTH 533 0
DWIDTH 8 0
BBX 6 9 1 -1
BITMAP
B8
C4
80
80
80
80
80
80
80
ENDCHAR
STARTCHAR U+0073
ENCODING 115
SWIDTH 533 0
DWIDTH 8 0
BBX 6 9 1 -1
BITMAP
7C
80
80
80
78
04
04
04
F8
ENDCHAR
STARTCHAR U+0074
ENCODING 116
SWIDTH 466 0
DWIDTH 7 0
BBX 5 12 1 -1
BITMAP
40
40
40
F0
40
40
40
40
40
40
40
38
ENDCHAR
STARTCHAR U+0075
ENCODING 117
SWIDTH 533 0
DWIDTH 8 0
BBX 6 9 1 -1
BITMAP
84
84
84
84
84
84
84
8C
74
ENDCHAR
STARTCHAR U+0076
ENCODING 118
SWIDTH 533 0
DWIDTH 8 0
BBX 6 9 1 -1
BITMAP
84
84
84
84
48
48
48
30
30
ENDCHAR
STARTCHAR U+0077
ENCODING 119
SWIDTH 533 0
DWIDTH 8 0
BBX 7 9 1 -1
BITMAP
82
82
82
82
92
92
AA
44
44
ENDCHAR
STARTCHAR U+0078
ENCODING 120
SWIDTH 533 0
DWIDTH 8 0
BBX 7 9 0 -1
BITMAP
82
82
44
28
10
28
44
82
82
ENDCHAR
STARTCHAR U+0079
ENCODING 121
SWIDTH 533 0
DWIDTH 8 0
BBX 6 10 1 -2
BITMAP
84
84
84
84
84
8C
74
04
04
F8
ENDCHAR
STARTCHAR U+007A
ENCODING 122
SWIDTH 600 0
DWIDTH 9 0
BBX 7 9 1 -1
BITMAP
FE
02
04
08
10
20
40
80
FE
ENDCHAR
STARTCHAR U+007B
ENCODING 123
SWIDTH 533 0
DWIDTH 8 0
BBX 6 15 1 -2
BITMAP
1C
20
20
20
20
20
20
C0
20
20
20
20
20
20
1C
ENDCHAR
STARTCHAR U+007C
ENCODING 124
SWIDTH 333 0
DWIDTH 5 0
BBX 1 13 2 -1
BITMAP
80
80
80
80
80
80
80
80
80
80
80
80
80
ENDCHAR
STARTCHAR U+007D
ENCODING 125
SWIDTH 533 0
DWIDTH 8 0
BBX 6 15 1 -2
BITMAP
E0
10
10
10
10
10
10
0C
10
10
10
10
10
10
E0
ENDCHAR
STARTCHAR U+007E
ENCODING 126
SWIDTH 600 0
DWIDTH 9 0
BBX 7 3 1 3
BITMAP
62
92
8C
ENDCHAR
STARTCHAR U+007F
ENCODING 127
SWIDTH 533 0
DWIDTH 8 0
BBX 0 0 0 0
BITMAP
ENDCHAR
STARTCHAR U+00AB
ENCODING 171
SWIDTH 533 0
DWIDTH 8 0
BBX 7 9 0 0
BITMAP
0A
14
28
50
A0
50
28
14
0A
ENDCHAR
STARTCHAR U+00B7
ENCODING 183
SWIDTH 400 0
DWIDTH 6 0
BBX 2 2 2 5
BITMAP
C0
C0
ENDCHAR
STARTCHAR U+00BB
ENCODING 187
SWIDTH 533 0
DWIDTH 8 0
BBX 7 9 1 0
BITMAP
A0
50
28
14
0A
14
28
50
A0
ENDCHAR
STARTCHAR U+02B9
ENCODING 697
SWIDTH 400 0
DWIDTH 6 0
BBX 2 4 2 9
BITMAP
40
80
80
80
ENDCHAR
STARTCHAR U+02BA
ENCODING 698
SWIDTH 400 0
DWIDTH 6 0
BBX 4 4 1 9
BITMAP
50
A0
A0
A0
ENDCHAR
STARTCHAR U+02BB
ENCODING 699
SWIDTH 400 0
DWIDTH 6 0
BBX 2 4 2 9
BITMAP
40
80
C0
C0
ENDCHAR
STARTCHAR U+02BC
ENCODING 700
SWIDTH 400 0
DWIDTH 6 0
BBX 2 4 2 9
BITMAP
C0
C0
40
80
ENDCHAR
STARTCHAR U+02BD
ENCODING 701
SWIDTH 400 0
DWIDTH 6 0
BBX 2 4 2 9
BITMAP
C0
C0
80
40
ENDCHAR
STARTCHAR U+2013
ENCODING 8211
SWIDTH 533 0
DWIDTH 8 0
BBX 6 1 1 4
BITMAP
FC
ENDCHAR
STARTCHAR U+2014
ENCODING 8212
SWIDTH 600 0
DWIDTH 9 0
BBX 7 1 1 4
BITMAP
FE
ENDCHAR
STARTCHAR U+2015
ENCODING 8213
SWIDTH 533 0
DWIDTH 8 0
BBX 8 1 0 4
BITMAP
FF
ENDCHAR
STARTCHAR U+2018
ENCODING 8216
SWIDTH 400 0
DWIDTH 6 0
BBX 2 5 2 8
BITMAP
40
80
80
C0
C0
ENDCHAR
STARTCHAR U+2019
ENCODING 8217
SWIDTH 400 0
DWIDTH 6 0
BBX 2 5 2 8
BITMAP
C0
C0
40
40
80
ENDCHAR
STARTCHAR U+201A
ENCODING 8218
SWIDTH 400 0
DWIDTH 6 0
BBX 2 5 2 -1
BITMAP
C0
C0
40
40
80
ENDCHAR
STARTCHAR U+201B
ENCODING 8219
SWIDTH 400 0
DWIDTH 6 0
BBX 2 5 2 8
BITMAP
C0
C0
80
80
40
ENDCHAR
STARTCHAR U+201C
ENCODING 8220
SWIDTH 466 0
DWIDTH 7 0
BBX 5 5 1 8
BITMAP
48
90
90
D8
D8
ENDCHAR
STARTCHAR U+201D
ENCODING 8221
SWIDTH 466 0
DWIDTH 7 0
BBX 5 5 1 8
BITMAP
D8
D8
48
48
90
ENDCHAR
STARTCHAR U+201E
ENCODING 8222
SWIDTH 466 0
DWIDTH 7 0
BBX 5 5 1 -1
BITMAP
D8
D8
48
48
90
ENDCHAR
STARTCHAR U+201F
ENCODING 8223
SWIDTH 466 0
DWIDTH 7 0
BBX 5 5 1 8
BITMAP
D8
D8
90
90
48
ENDCHAR
STARTCHAR U+2020
ENCODING 8224
SWIDTH 533 0
DWIDTH 8 0
BBX 1 13 3 -1
BITMAP
80
80
80
80
80
80
80
80
80
80
80
80
80
ENDCHAR
STARTCHAR U+2021
ENCODING 8225
SWIDTH 533 0
DWIDTH 8 0
BBX 5 13 1 -1
BITMAP
20
20
20
20
F8
20
20
20
F8
20
20
20
20
ENDCHAR
STARTCHAR U+203B
ENCODING 8251
SWIDTH 533 0
DWIDTH 8 0
BBX 7 7 0 2
BITMAP
92
44
28
92
28
44
92
ENDCHAR
STARTCHAR U+203C
ENCODING 8252
SWIDTH 533 0
DWIDTH 8 0
BBX 3 13 2 -1
BITMAP
A0
A0
A0
A0
A0
A0
A0
A0
A0
00
00
A0
A0
ENDCHAR
STARTCHAR U+203D
ENCODING 8253
SWIDTH 533 0
DWIDTH 8 0
BBX 6 13 1 -1
BITMAP
78
A4
A4
A4
24
28
30
20
20
20
00
20
20
ENDCHAR
STARTCHAR U+2047
ENCODING 8263
SWIDTH 533 0
DWIDTH 8 0
BBX 5 13 1 -1
BITMAP
50
A8
A8
28
28
50
50
50
50
50
00
50
50
ENDCHAR
STARTCHAR U+2048
ENCODING 8264
SWIDTH 533 0
DWIDTH 8 0
BBX 5 13 1 -1
BITMAP
48
A8
A8
28
28
48
48
48
48
48
00
48
48
ENDCHAR
STARTCHAR U+2049
ENCODING 8265
SWIDTH 533 0
DWIDTH 8 0
BBX 5 13 2 -1
BITMAP
90
A8
A8
88
88
90
90
90
90
90
00
90
90
ENDCHAR
STARTCHAR U+2190
ENCODING 8592
SWIDTH 533 0
DWIDTH 8 0
BBX 6 5 1 2
BITMAP
20
40
FC
40
20
ENDCHAR
STARTCHAR U+2191
ENCODING 8593
SWIDTH 533 0
DWIDTH 8 0
BBX 5 6 1 2
BITMAP
20
70
A8
20
20
20
ENDCHAR
STARTCHAR U+2192
ENCODING 8594
SWIDTH 533 0
DWIDTH 8 0
BBX 6 5 1 2
BITMAP
10
08
FC
08
10
ENDCHAR
STARTCHAR U+2193
ENCODING 8595
SWIDTH 533 0
DWIDTH 8 0
BBX 5 6 1 2
BITMAP
20
20
20
A8
70
20
ENDCHAR
STARTCHAR U+2194
ENCODING 8596
SWIDTH 866 0
DWIDTH 13 0
BBX 11 5 1 2
BITMAP
2080
4040
FFE0
4040
2080
ENDCHAR
STARTCHAR U+2195
ENCODING 8597
SWIDTH 533 0
DWIDTH 8 0
BBX 5 10 1 1
BITMAP
20
70
A8
20
20
20
20
A8
70
20
ENDCHAR
STARTCHAR U+2196
ENCODING 8598
SWIDTH 533 0
DWIDTH 8 0
BBX 6 6 1 1
BITMAP
F0
C0
A0
90
08
04
ENDCHAR
STARTCHAR U+2197
ENCODING 8599
SWIDTH 533 0
DWIDTH 8 0
BBX 6 6 1 1
BITMAP
3C
0C
14
24
40
80
ENDCHAR
STARTCHAR U+2198
ENCODING 8600
SWIDTH 533 0
DWIDTH 8 0
BBX 6 6 1 1
BITMAP
80
40
24
14
0C
3C
ENDCHAR
STARTCHAR U+2199
ENCODING 8601
SWIDTH 533 0
DWIDTH 8 0
BBX 6 6 1 1
BITMAP
04
08
90
A0
C0
F0
ENDCHAR
STARTCHAR U+2212
ENCODING 8722
SWIDTH 533 0
DWIDTH 8 0
BBX 6 1 1 4
BITMAP
FC
ENDCHAR
STARTCHAR U+2318
ENCODING 8984
SWIDTH 533 0
DWIDTH 8 0
BBX 7 9 0 2
BITMAP
44
AA
AA
7C
28
7C
AA
AA
44
ENDCHAR
STARTCHAR U+2325
ENCODING 8997
SWIDTH 533 0
DWIDTH 8 0
BBX 7 8 0 0
BITMAP
CE
20
20
10
10
08
08
06
ENDCHAR
STARTCHAR U+2500
ENCODING 9472
SWIDTH 533 0
DWIDTH 8 0
BBX 8 1 0 5
BITMAP
FF
ENDCHAR
STARTCHAR U+2501
ENCODING 9473
SWIDTH 533 0
DWIDTH 8 0
BBX 8 2 0 5
BITMAP
FF
FF
ENDCHAR
STARTCHAR U+2502
ENCODING 9474
SWIDTH 533 0
DWIDTH 8 0
BBX 1 16 3 -2
BITMAP
80
80
80
80
80
80
80
80
80
80
80
80
80
80
80
80
ENDCHAR
STARTCHAR U+2503
ENCODING 9475
SWIDTH 533 0
DWIDTH 8 0
BBX 2 16 3 -2
BITMAP
C0
C0
C0
C0
C0
C0
C0
C0
C0
C0
C0
C0
C0
C0
C0
C0
ENDCHAR
STARTCHAR U+250C
ENCODING 9484
SWIDTH 533 0
DWIDTH 8 0
BBX 5 8 3 -2
BITMAP
78
80
80
80
80
80
80
80
ENDCHAR
STARTCHAR U+250D
ENCODING 9485
SWIDTH 533 0
DWIDTH 8 0
BBX 5 9 3 -2
BITMAP
78
F8
80
80
80
80
80
80
80
ENDCHAR
STARTCHAR U+250E
ENCODING 9486
SWIDTH 533 0
DWIDTH 8 0
BBX 5 8 3 -2
BITMAP
78
C0
C0
C0
C0
C0
C0
C0
ENDCHAR
STARTCHAR U+250F
ENCODING 9487
SWIDTH 533 0
DWIDTH 8 0
BBX 5 9 3 -2
BITMAP
78
F8
C0
C0
C0
C0
C0
C0
C0
ENDCHAR
STARTCHAR U+2510
ENCODING 9488
SWIDTH 533 0
DWIDTH 8 0
BBX 4 8 0 -2
BITMAP
E0
10
10
10
10
10
10
10
ENDCHAR
STARTCHAR U+2511
ENCODING 9489
SWIDTH 533 0
DWIDTH 8 0
BBX 4 9 0 -2
BITMAP
E0
F0
10
10
10
10
10
10
10
ENDCHAR
STARTCHAR U+2512
ENCODING 9490
SWIDTH 533 0
DWIDTH 8 0
BBX 5 8 0 -2
BITMAP
F0
18
18
18
18
18
18
18
ENDCHAR
STARTCHAR U+2513
ENCODING 9491
SWIDTH 533 0
DWIDTH 8 0
BBX 5 9 0 -2
BITMAP
F0
F8
18
18
18
18
18
18
18
ENDCHAR
STARTCHAR U+2514
ENCODING 9492
SWIDTH 533 0
DWIDTH 8 0
BBX 5 9 3 5
BITMAP
80
80
80
80
80
80
80
80
78
ENDCHAR
STARTCHAR U+2515
ENCODING 9493
SWIDTH 533 0
DWIDTH 8 0
BBX 5 9 3 5
BITMAP
80
80
80
80
80
80
80
F8
78
ENDCHAR
STARTCHAR U+2516
ENCODING 9494
SWIDTH 533 0
DWIDTH 8 0
BBX 5 9 3 5
BITMAP
C0
C0
C0
C0
C0
C0
C0
C0
78
ENDCHAR
STARTCHAR U+2517
ENCODING 9495
SWIDTH 533 0
DWIDTH 8 0
BBX 5 9 3 5
BITMAP
C0
C0
C0
C0
C0
C0
C0
F8
78
ENDCHAR
STARTCHAR U+2518
ENCODING 9496
SWIDTH 533 0
DWIDTH 8 0
BBX 4 9 0 5
BITMAP
10
10
10
10
10
10
10
10
E0
ENDCHAR
STARTCHAR U+2519
ENCODING 9497
SWIDTH 533 0
DWIDTH 8 0
BBX 4 9 0 5
BITMAP
10
10
10
10
10
10
10
F0
E0
ENDCHAR
STARTCHAR U+251A
ENCODING 9498
SWIDTH 533 0
DWIDTH 8 0
BBX 5 9 0 5
BITMAP
18
18
18
18
18
18
18
18
F0
ENDCHAR
STARTCHAR U+251B
ENCODING 9499
SWIDTH 533 0
DWIDTH 8 0
BBX 5 9 0 5
BITMAP
18
18
18
18
18
18
18
F8
F0
ENDCHAR
STARTCHAR U+251C
ENCODING 9500
SWIDTH 533 0
DWIDTH 8 0
BBX 5 16 3 -2
BITMAP
80
80
80
80
80
80
80
80
F8
80
80
80
80
80
80
80
ENDCHAR
STARTCHAR U+251D
ENCODING 9501
SWIDTH 533 0
DWIDTH 8 0
BBX 5 16 3 -2
BITMAP
80
80
80
80
80
80
80
F8
F8
80
80
80
80
80
80
80
ENDCHAR
STARTCHAR U+251E
ENCODING 9502
SWIDTH 533 0
DWIDTH 8 0
BBX 5 16 3 -2
BITMAP
C0
C0
C0
C0
C0
C0
C0
C0
F8
80
80
80
80
80
80
80
ENDCHAR
STARTCHAR U+251F
ENCODING 9503
SWIDTH 533 0
DWIDTH 8 0
BBX 5 16 3 -2
BITMAP
80
80
80
80
80
80
80
80
F8
C0
C0
C0
C0
C0
C0
C0
ENDCHAR
STARTCHAR U+2520
ENCODING 9504
SWIDTH 533 0
DWIDTH 8 0
BBX 5 16 3 -2
BITMAP
C0
C0
C0
C0
C0
C0
C0
C0
F8
C0
C0
C0
C0
C0
C0
C0
ENDCHAR
STARTCHAR U+2521
ENCODING 9505
SWIDTH 533 0
DWIDTH 8 0
BBX 5 16 3 -2
BITMAP
C0
C0
C0
C0
C0
C0
C0
F8
F8
80
80
80
80
80
80
80
ENDCHAR
STARTCHAR U+2522
ENCODING 9506
SWIDTH 533 0
DWIDTH 8 0
BBX 5 16 3 -2
BITMAP
80
80
80
80
80
80
80
F8
F8
C0
C0
C0
C0
C0
C0
C0
ENDCHAR
STARTCHAR U+2523
ENCODING 9507
SWIDTH 533 0
DWIDTH 8 0
BBX 5 16 3 -2
BITMAP
C0
C0
C0
C0
C0
C0
C0
F8
F8
C0
C0
C0
C0
C0
C0
C0
ENDCHAR
STARTCHAR U+2524
ENCODING 9508
SWIDTH 533 0
DWIDTH 8 0
BBX 4 16 0 -2
BITMAP
10
10
10
10
10
10
10
10
F0
10
10
10
10
10
10
10
ENDCHAR
STARTCHAR U+2525
ENCODING 9509
SWIDTH 533 0
DWIDTH 8 0
BBX 4 16 0 -2
BITMAP
10
10
10
10
10
10
10
F0
F0
10
10
10
10
10
10
10
ENDCHAR
STARTCHAR U+2526
ENCODING 9510
SWIDTH 533 0
DWIDTH 8 0
BBX 5 16 0 -2
BITMAP
18
18
18
18
18
18
18
18
F8
10
10
10
10
10
10
10
ENDCHAR
STARTCHAR U+2527
ENCODING 9511
SWIDTH 533 0
DWIDTH 8 0
BBX 5 16 0 -2
BITMAP
10
10
10
10
10
10
10
10
F8
18
18
18
18
18
18
18
ENDCHAR
STARTCHAR U+2528
ENCODING 9512
SWIDTH 533 0
DWIDTH 8 0
BBX 5 16 0 -2
BITMAP
18
18
18
18
18
18
18
18
F8
18
18
18
18
18
18
18
ENDCHAR
STARTCHAR U+2529
ENCODING 9513
SWIDTH 533 0
DWIDTH 8 0
BBX 5 16 0 -2
BITMAP
18
18
18
18
18
18
18
F8
F8
10
10
10
10
10
10
10
ENDCHAR
STARTCHAR U+252A
ENCODING 9514
SWIDTH 533 0
DWIDTH 8 0
BBX 5 16 0 -2
BITMAP
10
10
10
10
10
10
10
F8
F8
18
18
18
18
18
18
18
ENDCHAR
STARTCHAR U+252B
ENCODING 9515
SWIDTH 533 0
DWIDTH 8 0
BBX 5 16 0 -2
BITMAP
18
18
18
18
18
18
18
F8
F8
18
18
18
18
18
18
18
ENDCHAR
STARTCHAR U+252C
ENCODING 9516
SWIDTH 533 0
DWIDTH 8 0
BBX 8 8 0 -2
BITMAP
FF
10
10
10
10
10
10
10
ENDCHAR
STARTCHAR U+252D
ENCODING 9517
SWIDTH 533 0
DWIDTH 8 0
BBX 8 9 0 -2
BITMAP
F0
FF
10
10
10
10
10
10
10
ENDCHAR
STARTCHAR U+252E
ENCODING 9518
SWIDTH 533 0
DWIDTH 8 0
BBX 8 9 0 -2
BITMAP
1F
FF
10
10
10
10
10
10
10
ENDCHAR
STARTCHAR U+252F
ENCODING 9519
SWIDTH 533 0
DWIDTH 8 0
BBX 8 9 0 -2
BITMAP
FF
FF
10
10
10
10
10
10
10
ENDCHAR
STARTCHAR U+2530
ENCODING 9520
SWIDTH 533 0
DWIDTH 8 0
BBX 8 8 0 -2
BITMAP
FF
18
18
18
18
18
18
18
ENDCHAR
STARTCHAR U+2531
ENCODING 9521
SWIDTH 533 0
DWIDTH 8 0
BBX 8 9 0 -2
BITMAP
F8
FF
18
18
18
18
18
18
18
ENDCHAR
STARTCHAR U+2532
ENCODING 9522
SWIDTH 533 0
DWIDTH 8 0
BBX 8 9 0 -2
BITMAP
1F
FF
18
18
18
18
18
18
18
ENDCHAR
STARTCHAR U+2533
ENCODING 9523
SWIDTH 533 0
DWIDTH 8 0
BBX 8 9 0 -2
BITMAP
FF
FF
18
18
18
18
18
18
18
ENDCHAR
STARTCHAR U+2534
ENCODING 9524
SWIDTH 533 0
DWIDTH 8 0
BBX 8 9 0 5
BITMAP
10
10
10
10
10
10
10
10
FF
ENDCHAR
STARTCHAR U+2535
ENCODING 9525
SWIDTH 533 0
DWIDTH 8 0
BBX 8 9 0 5
BITMAP
10
10
10
10
10
10
10
F0
FF
ENDCHAR
STARTCHAR U+2536
ENCODING 9526
SWIDTH 533 0
DWIDTH 8 0
BBX 8 9 0 5
BITMAP
10
10
10
10
10
10
10
1F
FF
ENDCHAR
STARTCHAR U+2537
ENCODING 9527
SWIDTH 533 0
DWIDTH 8 0
BBX 8 9 0 5
BITMAP
10
10
10
10
10
10
10
FF
FF
ENDCHAR
STARTCHAR U+2538
ENCODING 9528
SWIDTH 533 0
DWIDTH 8 0
BBX 8 9 0 5
BITMAP
18
18
18
18
18
18
18
18
FF
ENDCHAR
STARTCHAR U+2539
ENCODING 9529
SWIDTH 533 0
DWIDTH 8 0
BBX 8 9 0 5
BITMAP
18
18
18
18
18
18
18
F8
FF
ENDCHAR
STARTCHAR U+253A
ENCODING 9530
SWIDTH 533 0
DWIDTH 8 0
BBX 8 9 0 5
BITMAP
18
18
18
18
18
18
18
1F
FF
ENDCHAR
STARTCHAR U+253B
ENCODING 9531
SWIDTH 533 0
DWIDTH 8 0
BBX 8 9 0 5
BITMAP
18
18
18
18
18
18
18
FF
FF
ENDCHAR
STARTCHAR U+253C
ENCODING 9532
SWIDTH 533 0
DWIDTH 8 0
BBX 8 16 0 -2
BITMAP
10
10
10
10
10
10
10
10
FF
10
10
10
10
10
10
10
ENDCHAR
STARTCHAR U+253D
ENCODING 9533
SWIDTH 533 0
DWIDTH 8 0
BBX 8 16 0 -2
BITMAP
10
10
10
10
10
10
10
F0
FF
10
10
10
10
10
10
10
ENDCHAR
STARTCHAR U+253E
ENCODING 9534
SWIDTH 533 0
DWIDTH 8 0
BBX 8 16 0 -2
BITMAP
10
10
10
10
10
10
10
1F
FF
10
10
10
10
10
10
10
ENDCHAR
STARTCHAR U+253F
ENCODING 9535
SWIDTH 533 0
DWIDTH 8 0
BBX 8 16 0 -2
BITMAP
10
10
10
10
10
10
10
FF
FF
10
10
10
10
10
10
10
ENDCHAR
STARTCHAR U+2540
ENCODING 9536
SWIDTH 533 0
DWIDTH 8 0
BBX 8 16 0 -2
BITMAP
18
18
18
18
18
18
18
18
FF
10
10
10
10
10
10
10
ENDCHAR
STARTCHAR U+2541
ENCODING 9537
SWIDTH 533 0
DWIDTH 8 0
BBX 8 16 0 -2
BITMAP
10
10
10
10
10
10
10
10
FF
18
18
18
18
18
18
18
ENDCHAR
STARTCHAR U+2542
ENCODING 9538
SWIDTH 533 0
DWIDTH 8 0
BBX 8 16 0 -2
BITMAP
18
18
18
18
18
18
18
18
FF
18
18
18
18
18
18
18
ENDCHAR
STARTCHAR U+2543
ENCODING 9539
SWIDTH 533 0
DWIDTH 8 0
BBX 8 16 0 -2
BITMAP
18
18
18
18
18
18
18
F8
FF
10
10
10
10
10
10
10
ENDCHAR
STARTCHAR U+2544
ENCODING 9540
SWIDTH 533 0
DWIDTH 8 0
BBX 8 16 0 -2
BITMAP
18
18
18
18
18
18
18
1F
FF
10
10
10
10
10
10
10
ENDCHAR
STARTCHAR U+2545
ENCODING 9541
SWIDTH 533 0
DWIDTH 8 0
BBX 8 16 0 -2
BITMAP
10
10
10
10
10
10
10
F8
FF
18
18
18
18
18
18
18
ENDCHAR
STARTCHAR U+2546
ENCODING 9542
SWIDTH 533 0
DWIDTH 8 0
BBX 8 16 0 -2
BITMAP
10
10
10
10
10
10
10
1F
FF
18
18
18
18
18
18
18
ENDCHAR
STARTCHAR U+2547
ENCODING 9543
SWIDTH 533 0
DWIDTH 8 0
BBX 8 16 0 -2
BITMAP
18
18
18
18
18
18
18
FF
FF
10
10
10
10
10
10
10
ENDCHAR
STARTCHAR U+2548
ENCODING 9544
SWIDTH 533 0
DWIDTH 8 0
BBX 8 16 0 -2
BITMAP
10
10
10
10
10
10
10
FF
FF
18
18
18
18
18
18
18
ENDCHAR
STARTCHAR U+2549
ENCODING 9545
SWIDTH 533 0
DWIDTH 8 0
BBX 8 16 0 -2
BITMAP
18
18
18
18
18
18
18
F8
FF
18
18
18
18
18
18
18
ENDCHAR
STARTCHAR U+254A
ENCODING 9546
SWIDTH 533 0
DWIDTH 8 0
BBX 8 16 0 -2
BITMAP
18
18
18
18
18
18
18
1F
FF
18
18
18
18
18
18
18
ENDCHAR
STARTCHAR U+254B
ENCODING 9547
SWIDTH 533 0
DWIDTH 8 0
BBX 8 16 0 -2
BITMAP
18
18
18
18
18
18
18
FF
FF
18
18
18
18
18
18
18
ENDCHAR
STARTCHAR U+2550
ENCODING 9552
SWIDTH 533 0
DWIDTH 8 0
BBX 8 3 0 4
BITMAP
FF
00
FF
ENDCHAR
STARTCHAR U+2551
ENCODING 9553
SWIDTH 533 0
DWIDTH 8 0
BBX 3 16 2 -2
BITMAP
A0
A0
A0
A0
A0
A0
A0
A0
A0
A0
A0
A0
A0
A0
A0
A0
ENDCHAR
STARTCHAR U+2552
ENCODING 9554
SWIDTH 533 0
DWIDTH 8 0
BBX 6 9 2 -2
BITMAP
7C
80
9C
A0
40
40
40
40
40
ENDCHAR
STARTCHAR U+2553
ENCODING 9555
SWIDTH 533 0
DWIDTH 8 0
BBX 6 9 2 -2
BITMAP
70
8C
90
A0
A0
A0
A0
A0
A0
ENDCHAR
STARTCHAR U+2554
ENCODING 9556
SWIDTH 533 0
DWIDTH 8 0
BBX 6 9 2 -2
BITMAP
7C
80
9C
A0
A0
A0
A0
A0
A0
ENDCHAR
STARTCHAR U+2555
ENCODING 9557
SWIDTH 533 0
DWIDTH 8 0
BBX 5 9 0 -2
BITMAP
F0
08
C8
28
10
10
10
10
10
ENDCHAR
STARTCHAR U+2556
ENCODING 9558
SWIDTH 533 0
DWIDTH 8 0
BBX 5 9 0 -2
BITMAP
30
C8
28
28
28
28
28
28
28
ENDCHAR
STARTCHAR U+2557
ENCODING 9559
SWIDTH 533 0
DWIDTH 8 0
BBX 5 9 0 -2
BITMAP
F0
08
C8
28
28
28
28
28
28
ENDCHAR
STARTCHAR U+2558
ENCODING 9560
SWIDTH 533 0
DWIDTH 8 0
BBX 6 10 2 4
BITMAP
40
40
40
40
40
40
A0
9C
80
7C
ENDCHAR
STARTCHAR U+2559
ENCODING 9561
SWIDTH 533 0
DWIDTH 8 0
BBX 6 10 2 4
BITMAP
A0
A0
A0
A0
A0
A0
A0
90
8C
70
ENDCHAR
STARTCHAR U+255A
ENCODING 9562
SWIDTH 533 0
DWIDTH 8 0
BBX 6 10 2 4
BITMAP
A0
A0
A0
A0
A0
A0
A0
9C
80
7C
ENDCHAR
STARTCHAR U+255B
ENCODING 9563
SWIDTH 533 0
DWIDTH 8 0
BBX 5 10 0 4
BITMAP
10
10
10
10
10
10
28
C8
08
F0
ENDCHAR
STARTCHAR U+255C
ENCODING 9564
SWIDTH 533 0
DWIDTH 8 0
BBX 5 10 0 4
BITMAP
28
28
28
28
28
28
28
28
C8
30
ENDCHAR
STARTCHAR U+255D
ENCODING 9565
SWIDTH 533 0
DWIDTH 8 0
BBX 5 10 0 4
BITMAP
28
28
28
28
28
28
28
C8
08
F0
ENDCHAR
STARTCHAR U+255E
ENCODING 9566
SWIDTH 533 0
DWIDTH 8 0
BBX 5 16 3 -2
BITMAP
80
80
80
80
80
80
C0
B8
80
B8
C0
80
80
80
80
80
ENDCHAR
STARTCHAR U+255F
ENCODING 9567
SWIDTH 533 0
DWIDTH 8 0
BBX 6 16 2 -2
BITMAP
A0
A0
A0
A0
A0
A0
A0
A0
9C
A0
A0
A0
A0
A0
A0
A0
ENDCHAR
STARTCHAR U+2560
ENCODING 9568
SWIDTH 533 0
DWIDTH 8 0
BBX 6 16 2 -2
BITMAP
A0
A0
A0
A0
A0
A0
A0
9C
80
9C
A0
A0
A0
A0
A0
A0
ENDCHAR
STARTCHAR U+2561
ENCODING 9569
SWIDTH 533 0
DWIDTH 8 0
BBX 4 16 0 -2
BITMAP
10
10
10
10
10
10
30
D0
10
D0
30
10
10
10
10
10
ENDCHAR
STARTCHAR U+2562
ENCODING 9570
SWIDTH 533 0
DWIDTH 8 0
BBX 5 16 0 -2
BITMAP
28
28
28
28
28
28
28
28
C8
28
28
28
28
28
28
28
ENDCHAR
STARTCHAR U+2563
ENCODING 9571
SWIDTH 533 0
DWIDTH 8 0
BBX 5 16 0 -2
BITMAP
28
28
28
28
28
28
28
C8
08
C8
28
28
28
28
28
28
ENDCHAR
STARTCHAR U+2564
ENCODING 9572
SWIDTH 533 0
DWIDTH 8 0
BBX 8 9 0 -2
BITMAP
FF
00
C7
28
10
10
10
10
10
ENDCHAR
STARTCHAR U+2565
ENCODING 9573
SWIDTH 533 0
DWIDTH 8 0
BBX 8 8 0 -2
BITMAP
FF
44
28
28
28
28
28
28
ENDCHAR
STARTCHAR U+2566
ENCODING 9574
SWIDTH 533 0
DWIDTH 8 0
BBX 8 9 0 -2
BITMAP
FF
00
C7
28
28
28
28
28
28
ENDCHAR
STARTCHAR U+2567
ENCODING 9575
SWIDTH 533 0
DWIDTH 8 0
BBX 8 10 0 4
BITMAP
10
10
10
10
10
10
28
C7
00
FF
ENDCHAR
STARTCHAR U+2568
ENCODING 9576
SWIDTH 533 0
DWIDTH 8 0
BBX 8 9 0 5
BITMAP
28
28
28
28
28
28
28
44
FF
ENDCHAR
STARTCHAR U+2569
ENCODING 9577
SWIDTH 533 0
DWIDTH 8 0
BBX 8 10 0 4
BITMAP
28
28
28
28
28
28
28
C7
00
FF
ENDCHAR
STARTCHAR U+256A
ENCODING 9578
SWIDTH 533 0
DWIDTH 8 0
BBX 8 16 0 -2
BITMAP
10
10
10
10
10
10
10
FF
10
FF
10
10
10
10
10
10
ENDCHAR
STARTCHAR U+256B
ENCODING 9579
SWIDTH 533 0
DWIDTH 8 0
BBX 8 16 0 -2
BITMAP
28
28
28
28
28
28
28
28
FF
28
28
28
28
28
28
28
ENDCHAR
STARTCHAR U+256C
ENCODING 9580
SWIDTH 533 0
DWIDTH 8 0
BBX 8 16 0 -2
BITMAP
28
28
28
28
28
28
28
C7
00
C7
28
28
28
28
28
28
ENDCHAR
STARTCHAR U+256D
ENCODING 9581
SWIDTH 533 0
DWIDTH 8 0
BBX 5 8 3 -2
BITMAP
38
40
40
80
80
80
80
80
ENDCHAR
STARTCHAR U+256E
ENCODING 9582
SWIDTH 533 0
DWIDTH 8 0
BBX 4 8 0 -2
BITMAP
C0
20
20
10
10
10
10
10
ENDCHAR
STARTCHAR U+256F
ENCODING 9583
SWIDTH 533 0
DWIDTH 8 0
BBX 4 9 0 5
BITMAP
10
10
10
10
10
10
20
20
C0
ENDCHAR
STARTCHAR U+2570
ENCODING 9584
SWIDTH 533 0
DWIDTH 8 0
BBX 5 9 3 5
BITMAP
80
80
80
80
80
80
40
40
38
ENDCHAR
STARTCHAR U+2571
ENCODING 9585
SWIDTH 533 0
DWIDTH 8 0
BBX 8 16 0 -2
BITMAP
01
01
02
02
04
04
08
08
10
10
20
20
40
40
80
80
ENDCHAR
STARTCHAR U+2572
ENCODING 9586
SWIDTH 533 0
DWIDTH 8 0
BBX 8 16 0 -2
BITMAP
80
80
40
40
20
20
10
10
08
08
04
04
02
02
01
01
ENDCHAR
STARTCHAR U+2573
ENCODING 9587
SWIDTH 533 0
DWIDTH 8 0
BBX 8 16 0 -2
BITMAP
81
81
42
42
24
24
18
18
18
18
24
24
42
42
81
81
ENDCHAR
STARTCHAR U+2580
ENCODING 9600
SWIDTH 533 0
DWIDTH 8 0
BBX 8 8 0 6
BITMAP
FF
FF
FF
FF
FF
FF
FF
FF
ENDCHAR
STARTCHAR U+2581
ENCODING 9601
SWIDTH 533 0
DWIDTH 8 0
BBX 8 2 0 -2
BITMAP
FF
FF
ENDCHAR
STARTCHAR U+2582
ENCODING 9602
SWIDTH 533 0
DWIDTH 8 0
BBX 8 4 0 -2
BITMAP
FF
FF
FF
FF
ENDCHAR
STARTCHAR U+2583
ENCODING 9603
SWIDTH 533 0
DWIDTH 8 0
BBX 8 6 0 -2
BITMAP
FF
FF
FF
FF
FF
FF
ENDCHAR
STARTCHAR U+2584
ENCODING 9604
SWIDTH 533 0
DWIDTH 8 0
BBX 8 8 0 -2
BITMAP
FF
FF
FF
FF
FF
FF
FF
FF
ENDCHAR
STARTCHAR U+2585
ENCODING 9605
SWIDTH 533 0
DWIDTH 8 0
BBX 8 10 0 -2
BITMAP
FF
FF
FF
FF
FF
FF
FF
FF
FF
FF
ENDCHAR
STARTCHAR U+2586
ENCODING 9606
SWIDTH 533 0
DWIDTH 8 0
BBX 8 12 0 -2
BITMAP
FF
FF
FF
FF
FF
FF
FF
FF
FF
FF
FF
FF
ENDCHAR
STARTCHAR U+2587
ENCODING 9607
SWIDTH 533 0
DWIDTH 8 0
BBX 8 14 0 -2
BITMAP
FF
FF
FF
FF
FF
FF
FF
FF
FF
FF
FF
FF
FF
FF
ENDCHAR
STARTCHAR U+2588
ENCODING 9608
SWIDTH 533 0
DWIDTH 8 0
BBX 8 16 0 -2
BITMAP
FF
FF
FF
FF
FF
FF
FF
FF
FF
FF
FF
FF
FF
FF
FF
FF
ENDCHAR
STARTCHAR U+2589
ENCODING 9609
SWIDTH 533 0
DWIDTH 8 0
BBX 7 16 0 -2
BITMAP
FE
FE
FE
FE
FE
FE
FE
FE
FE
FE
FE
FE
FE
FE
FE
FE
ENDCHAR
STARTCHAR U+258A
ENCODING 9610
SWIDTH 533 0
DWIDTH 8 0
BBX 6 16 0 -2
BITMAP
FC
FC
FC
FC
FC
FC
FC
FC
FC
FC
FC
FC
FC
FC
FC
FC
ENDCHAR
STARTCHAR U+258B
ENCODING 9611
SWIDTH 533 0
DWIDTH 8 0
BBX 5 16 0 -2
BITMAP
F8
F8
F8
F8
F8
F8
F8
F8
F8
F8
F8
F8
F8
F8
F8
F8
ENDCHAR
STARTCHAR U+258C
ENCODING 9612
SWIDTH 533 0
DWIDTH 8 0
BBX 4 16 0 -2
BITMAP
F0
F0
F0
F0
F0
F0
F0
F0
F0
F0
F0
F0
F0
F0
F0
F0
ENDCHAR
STARTCHAR U+258D
ENCODING 9613
SWIDTH 533 0
DWIDTH 8 0
BBX 3 16 0 -2
BITMAP
E0
E0
E0
E0
E0
E0
E0
E0
E0
E0
E0
E0
E0
E0
E0
E0
ENDCHAR
STARTCHAR U+258E
ENCODING 9614
SWIDTH 533 0
DWIDTH 8 0
BBX 2 16 0 -2
BITMAP
C0
C0
C0
C0
C0
C0
C0
C0
C0
C0
C0
C0
C0
C0
C0
C0
ENDCHAR
STARTCHAR U+258F
ENCODING 9615
SWIDTH 533 0
DWIDTH 8 0
BBX 1 16 0 -2
BITMAP
80
80
80
80
80
80
80
80
80
80
80
80
80
80
80
80
ENDCHAR
STARTCHAR U+2590
ENCODING 9616
SWIDTH 533 0
DWIDTH 8 0
BBX 4 16 4 -2
BITMAP
F0
F0
F0
F0
F0
F0
F0
F0
F0
F0
F0
F0
F0
F0
F0
F0
ENDCHAR
STARTCHAR U+2591
ENCODING 9617
SWIDTH 533 0
DWIDTH 8 0
BBX 7 16 0 -2
BITMAP
88
22
88
22
88
22
88
22
88
22
88
22
88
22
88
22
ENDCHAR
STARTCHAR U+2592
ENCODING 9618
SWIDTH 533 0
DWIDTH 8 0
BBX 8 16 0 -2
BITMAP
AA
55
AA
55
AA
55
AA
55
AA
55
AA
55
AA
55
AA
55
ENDCHAR
STARTCHAR U+2593
ENCODING 9619
SWIDTH 533 0
DWIDTH 8 0
BBX 8 16 0 -2
BITMAP
77
DD
77
DD
77
DD
77
DD
77
DD
77
DD
77
DD
77
DD
ENDCHAR
STARTCHAR U+2594
ENCODING 9620
SWIDTH 533 0
DWIDTH 8 0
BBX 8 2 0 12
BITMAP
FF
FF
ENDCHAR
STARTCHAR U+2595
ENCODING 9621
SWIDTH 533 0
DWIDTH 8 0
BBX 1 16 7 -2
BITMAP
80
80
80
80
80
80
80
80
80
80
80
80
80
80
80
80
ENDCHAR
STARTCHAR U+2596
ENCODING 9622
SWIDTH 533 0
DWIDTH 8 0
BBX 4 8 0 -2
BITMAP
F0
F0
F0
F0
F0
F0
F0
F0
ENDCHAR
STARTCHAR U+2597
ENCODING 9623
SWIDTH 533 0
DWIDTH 8 0
BBX 4 8 4 -2
BITMAP
F0
F0
F0
F0
F0
F0
F0
F0
ENDCHAR
STARTCHAR U+2598
ENCODING 9624
SWIDTH 533 0
DWIDTH 8 0
BBX 4 8 0 6
BITMAP
F0
F0
F0
F0
F0
F0
F0
F0
ENDCHAR
STARTCHAR U+2599
ENCODING 9625
SWIDTH 533 0
DWIDTH 8 0
BBX 8 16 0 -2
BITMAP
F0
F0
F0
F0
F0
F0
F0
F0
FF
FF
FF
FF
FF
FF
FF
FF
ENDCHAR
STARTCHAR U+259A
ENCODING 9626
SWIDTH 533 0
DWIDTH 8 0
BBX 8 16 0 -2
BITMAP
F0
F0
F0
F0
F0
F0
F0
F0
0F
0F
0F
0F
0F
0F
0F
0F
ENDCHAR
STARTCHAR U+259B
ENCODING 9627
SWIDTH 533 0
DWIDTH 8 0
BBX 8 16 0 -2
BITMAP
FF
FF
FF
FF
FF
FF
FF
FF
F0
F0
F0
F0
F0
F0
F0
F0
ENDCHAR
STARTCHAR U+259C
ENCODING 9628
SWIDTH 533 0
DWIDTH 8 0
BBX 8 16 0 -2
BITMAP
FF
FF
FF
FF
FF
FF
FF
FF
0F
0F
0F
0F
0F
0F
0F
0F
ENDCHAR
STARTCHAR U+259D
ENCODING 9629
SWIDTH 533 0
DWIDTH 8 0
BBX 4 8 4 6
BITMAP
F0
F0
F0
F0
F0
F0
F0
F0
ENDCHAR
STARTCHAR U+259E
ENCODING 9630
SWIDTH 533 0
DWIDTH 8 0
BBX 8 16 0 -2
BITMAP
0F
0F
0F
0F
0F
0F
0F
0F
F0
F0
F0
F0
F0
F0
F0
F0
ENDCHAR
STARTCHAR U+259F
ENCODING 9631
SWIDTH 533 0
DWIDTH 8 0
BBX 8 16 0 -2
BITMAP
0F
0F
0F
0F
0F
0F
0F
0F
FF
FF
FF
FF
FF
FF
FF
FF
ENDCHAR
STARTCHAR U+25A0
ENCODING 9632
SWIDTH 533 0
DWIDTH 8 0
BBX 8 8 0 1
BITMAP
FF
FF
FF
FF
FF
FF
FF
FF
ENDCHAR
STARTCHAR U+25A1
ENCODING 9633
SWIDTH 533 0
DWIDTH 8 0
BBX 8 8 0 1
BITMAP
FF
81
81
81
81
81
81
FF
ENDCHAR
STARTCHAR U+25A2
ENCODING 9634
SWIDTH 533 0
DWIDTH 8 0
BBX 8 8 0 1
BITMAP
7E
81
81
81
81
81
81
7E
ENDCHAR
STARTCHAR U+25A3
ENCODING 9635
SWIDTH 533 0
DWIDTH 8 0
BBX 6 6 1 2
BITMAP
FC
84
B4
B4
84
FC
ENDCHAR
STARTCHAR U+25A4
ENCODING 9636
SWIDTH 533 0
DWIDTH 8 0
BBX 7 7 0 1
BITMAP
FE
82
FE
82
FE
82
FE
ENDCHAR
STARTCHAR U+25A5
ENCODING 9637
SWIDTH 533 0
DWIDTH 8 0
BBX 7 7 0 1
BITMAP
FE
AA
AA
AA
AA
AA
FE
ENDCHAR
STARTCHAR U+25A6
ENCODING 9638
SWIDTH 533 0
DWIDTH 8 0
BBX 7 7 0 1
BITMAP
FE
AA
FE
AA
FE
AA
FE
ENDCHAR
STARTCHAR U+25A7
ENCODING 9639
SWIDTH 533 0
DWIDTH 8 0
BBX 7 7 0 1
BITMAP
FE
CA
A6
92
CA
A6
FE
ENDCHAR
STARTCHAR U+25A8
ENCODING 9640
SWIDTH 533 0
DWIDTH 8 0
BBX 7 7 0 1
BITMAP
FE
A6
CA
92
A6
CA
FE
ENDCHAR
STARTCHAR U+25A9
ENCODING 9641
SWIDTH 533 0
DWIDTH 8 0
BBX 7 7 0 1
BITMAP
FE
AA
D6
AA
D6
AA
FE
ENDCHAR
STARTCHAR U+25AA
ENCODING 9642
SWIDTH 533 0
DWIDTH 8 0
BBX 4 4 2 3
BITMAP
F0
F0
F0
F0
ENDCHAR
STARTCHAR U+25AB
ENCODING 9643
SWIDTH 533 0
DWIDTH 8 0
BBX 4 4 2 3
BITMAP
F0
90
90
F0
ENDCHAR
STARTCHAR U+25AC
ENCODING 9644
SWIDTH 533 0
DWIDTH 8 0
BBX 6 4 1 3
BITMAP
FC
FC
FC
FC
ENDCHAR
STARTCHAR U+25AD
ENCODING 9645
SWIDTH 533 0
DWIDTH 8 0
BBX 6 4 1 3
BITMAP
FC
84
84
FC
ENDCHAR
STARTCHAR U+25AE
ENCODING 9646
SWIDTH 533 0
DWIDTH 8 0
BBX 4 6 2 2
BITMAP
F0
F0
F0
F0
F0
F0
ENDCHAR
STARTCHAR U+25AF
ENCODING 9647
SWIDTH 533 0
DWIDTH 8 0
BBX 4 6 2 2
BITMAP
F0
90
90
90
90
F0
ENDCHAR
STARTCHAR U+25B0
ENCODING 9648
SWIDTH 533 0
DWIDTH 8 0
BBX 6 4 1 3
BITMAP
3C
7C
F8
F0
ENDCHAR
STARTCHAR U+25B1
ENCODING 9649
SWIDTH 533 0
DWIDTH 8 0
BBX 6 4 1 3
BITMAP
3C
44
88
F0
ENDCHAR
STARTCHAR U+25B2
ENCODING 9650
SWIDTH 533 0
DWIDTH 8 0
BBX 7 7 0 1
BITMAP
10
38
38
7C
7C
FE
FE
ENDCHAR
STARTCHAR U+25B3
ENCODING 9651
SWIDTH 533 0
DWIDTH 8 0
BBX 7 7 0 1
BITMAP
10
28
28
44
44
82
FE
ENDCHAR
STARTCHAR U+25B6
ENCODING 9654
SWIDTH 533 0
DWIDTH 8 0
BBX 7 7 0 1
BITMAP
C0
F0
FC
FE
FC
F0
C0
ENDCHAR
STARTCHAR U+25B7
ENCODING 9655
SWIDTH 533 0
DWIDTH 8 0
BBX 7 7 0 1
BITMAP
C0
B0
8C
82
8C
B0
C0
ENDCHAR
STARTCHAR U+25BC
ENCODING 9660
SWIDTH 533 0
DWIDTH 8 0
BBX 7 7 0 1
BITMAP
FE
FE
7C
7C
38
38
10
ENDCHAR
STARTCHAR U+25BD
ENCODING 9661
SWIDTH 533 0
DWIDTH 8 0
BBX 7 7 0 1
BITMAP
FE
82
44
44
28
28
10
ENDCHAR
STARTCHAR U+25C0
ENCODING 9664
SWIDTH 533 0
DWIDTH 8 0
BBX 7 7 0 1
BITMAP
06
1E
7E
FE
7E
1E
06
ENDCHAR
STARTCHAR U+25C1
ENCODING 9665
SWIDTH 533 0
DWIDTH 8 0
BBX 7 7 0 1
BITMAP
06
1A
62
82
62
1A
06
ENDCHAR
STARTCHAR U+25C8
ENCODING 9672
SWIDTH 533 0
DWIDTH 8 0
BBX 7 7 0 2
BITMAP
10
28
54
BA
54
28
10
ENDCHAR
STARTCHAR U+25C9
ENCODING 9673
SWIDTH 533 0
DWIDTH 8 0
BBX 7 7 0 2
BITMAP
38
44
92
BA
92
44
38
ENDCHAR
STARTCHAR U+25E2
ENCODING 9698
SWIDTH 533 0
DWIDTH 8 0
BBX 8 16 0 -2
BITMAP
01
01
03
03
07
07
0F
0F
1F
1F
3F
3F
7F
7F
FF
FF
ENDCHAR
STARTCHAR U+25E3
ENCODING 9699
SWIDTH 533 0
DWIDTH 8 0
BBX 8 16 0 -2
BITMAP
80
80
C0
C0
E0
E0
F0
F0
F8
F8
FC
FC
FE
FE
FF
FF
ENDCHAR
STARTCHAR U+25E4
ENCODING 9700
SWIDTH 533 0
DWIDTH 8 0
BBX 8 16 0 -2
BITMAP
FF
FF
FE
FE
FC
FC
F8
F8
F0
F0
E0
E0
C0
C0
80
80
ENDCHAR
STARTCHAR U+25E5
ENCODING 9701
SWIDTH 533 0
DWIDTH 8 0
BBX 8 16 0 -2
BITMAP
FF
FF
7F
7F
3F
3F
1F
1F
0F
0F
07
07
03
03
01
01
ENDCHAR
STARTCHAR U+25EF
ENCODING 9711
SWIDTH 533 0
DWIDTH 8 0
BBX 8 8 0 2
BITMAP
3C
42
81
81
81
81
42
3C
ENDCHAR
STARTCHAR U+25FB
ENCODING 9723
SWIDTH 533 0
DWIDTH 8 0
BBX 6 6 1 2
BITMAP
FC
84
84
84
84
FC
ENDCHAR
STARTCHAR U+25FC
ENCODING 9724
SWIDTH 533 0
DWIDTH 8 0
BBX 6 6 1 2
BITMAP
FC
FC
FC
FC
FC
FC
ENDCHAR
STARTCHAR U+2605
ENCODING 9733
SWIDTH 533 0
DWIDTH 8 0
BBX 8 9 0 1
BITMAP
08
18
18
FF
7E
3C
3C
66
42
ENDCHAR
STARTCHAR U+2606
ENCODING 9734
SWIDTH 533 0
DWIDTH 8 0
BBX 8 9 0 1
BITMAP
08
18
14
E7
42
24
3C
66
42
ENDCHAR
STARTCHAR U+2610
ENCODING 9744
SWIDTH 533 0
DWIDTH 8 0
BBX 8 8 0 2
BITMAP
FF
81
81
81
81
81
81
FF
ENDCHAR
STARTCHAR U+2611
ENCODING 9745
SWIDTH 533 0
DWIDTH 8 0
BBX 8 8 0 2
BITMAP
FF
83
87
8D
D9
F1
A1
FF
ENDCHAR
STARTCHAR U+2612
ENCODING 9746
SWIDTH 533 0
DWIDTH 8 0
BBX 8 8 0 2
BITMAP
FF
E7
BD
99
BD
E7
C3
FF
ENDCHAR
STARTCHAR U+2613
ENCODING 9747
SWIDTH 533 0
DWIDTH 8 0
BBX 6 6 1 3
BITMAP
CC
78
30
78
CC
84
ENDCHAR
STARTCHAR U+2639
ENCODING 9785
SWIDTH 533 0
DWIDTH 8 0
BBX 8 8 0 1
BITMAP
7E
81
A5
81
99
A5
81
7E
ENDCHAR
STARTCHAR U+263A
ENCODING 9786
SWIDTH 533 0
DWIDTH 8 0
BBX 8 8 0 1
BITMAP
7E
81
A5
81
A5
99
81
7E
ENDCHAR
STARTCHAR U+263B
ENCODING 9787
SWIDTH 533 0
DWIDTH 8 0
BBX 8 8 0 1
BITMAP
7E
FF
DB
FF
DB
E7
FF
7E
ENDCHAR
STARTCHAR U+263F
ENCODING 9791
SWIDTH 533 0
DWIDTH 8 0
BBX 7 13 0 -1
BITMAP
82
FE
44
44
44
44
38
10
10
7C
10
10
10
ENDCHAR
STARTCHAR U+2640
ENCODING 9792
SWIDTH 533 0
DWIDTH 8 0
BBX 5 12 1 -1
BITMAP
70
88
88
88
88
70
20
20
F8
20
20
20
ENDCHAR
STARTCHAR U+2641
ENCODING 9793
SWIDTH 533 0
DWIDTH 8 0
BBX 5 11 1 0
BITMAP
20
20
F8
20
20
70
88
88
88
88
70
ENDCHAR
STARTCHAR U+2642
ENCODING 9794
SWIDTH 533 0
DWIDTH 8 0
BBX 8 8 0 2
BITMAP
0F
03
05
79
88
88
88
70
ENDCHAR
STARTCHAR U+2648
ENCODING 9800
SWIDTH 1066 0
DWIDTH 16 0
BBX 12 12 2 0
BITMAP
3FC0
7FE0
EF70
D6B0
D6B0
F6F0
F6F0
F9F0
F9F0
F9F0
7FE0
3FC0
ENDCHAR
STARTCHAR U+2649
ENCODING 9801
SWIDTH 1066 0
DWIDTH 16 0
BBX 12 12 2 0
BITMAP
3FC0
7FE0
DFB0
EF70
F0F0
EF70
EF70
EF70
EF70
F0F0
7FE0
3FC0
ENDCHAR
STARTCHAR U+264A
ENCODING 9802
SWIDTH 1066 0
DWIDTH 16 0
BBX 12 12 2 0
BITMAP
3FC0
7FE0
DFB0
E070
F6F0
F6F0
F6F0
F6F0
E070
DFB0
7FE0
3FC0
ENDCHAR
STARTCHAR U+264B
ENCODING 9803
SWIDTH 1066 0
DWIDTH 16 0
BBX 12 12 2 0
BITMAP
3FC0
7FE0
E0F0
DB30
DBF0
E7F0
FE70
FDB0
CDB0
F070
7FE0
3FC0
ENDCHAR
STARTCHAR U+264C
ENCODING 9804
SWIDTH 1066 0
DWIDTH 16 0
BBX 12 12 2 0
BITMAP
3FC0
7FE0
FCF0
FB70
E370
DB70
DAF0
E6F0
FEF0
FE70
7FE0
3FC0
ENDCHAR
STARTCHAR U+264D
ENCODING 9805
SWIDTH 1066 0
DWIDTH 16 0
BBX 12 12 2 0
BITMAP
3FC0
7FE0
FFF0
C8F0
E230
EAB0
EAB0
EA70
EEF0
FD30
7FE0
3FC0
ENDCHAR
STARTCHAR U+264E
ENCODING 9806
SWIDTH 1066 0
DWIDTH 16 0
BBX 12 12 2 0
BITMAP
3FC0
7FE0
F0F0
EF70
EF70
EF70
F6F0
C630
FFF0
E070
7FE0
3FC0
ENDCHAR
STARTCHAR U+264F
ENCODING 9807
SWIDTH 1066 0
DWIDTH 16 0
BBX 12 12 2 0
BITMAP
3FC0
7FE0
FFF0
C8F0
E2F0
EAF0
EAF0
EAF0
EEF0
FF30
7FE0
3FC0
ENDCHAR
STARTCHAR U+2650
ENCODING 9808
SWIDTH 1066 0
DWIDTH 16 0
BBX 12 12 2 0
BITMAP
3FC0
7FE0
F830
FF30
FEB0
FDB0
DBB0
E7F0
E7F0
DBF0
7FE0
3FC0
ENDCHAR
STARTCHAR U+2651
ENCODING 9809
SWIDTH 1066 0
DWIDTH 16 0
BBX 12 12 2 0
BITMAP
3FC0
7FE0
FFF0
D3F0
EDF0
EC70
EDB0
EDB0
FC70
F3F0
7FE0
3FC0
ENDCHAR
STARTCHAR U+2652
ENCODING 9810
SWIDTH 1066 0
DWIDTH 16 0
BBX 12 12 2 0
BITMAP
3FC0
7FE0
F570
E070
D530
FFF0
FFF0
F570
E070
D530
7FE0
3FC0
ENDCHAR
STARTCHAR U+2653
ENCODING 9811
SWIDTH 1066 0
DWIDTH 16 0
BBX 12 12 2 0
BITMAP
3FC0
7FE0
CF30
F6F0
F6F0
E070
F6F0
F6F0
F6F0
CF30
7FE0
3FC0
ENDCHAR
STARTCHAR U+2654
ENCODING 9812
SWIDTH 533 0
DWIDTH 8 0
BBX 8 13 0 -1
BITMAP
18
18
7E
7E
18
FF
A5
A5
99
42
7E
81
FF
ENDCHAR
STARTCHAR U+2655
ENCODING 9813
SWIDTH 533 0
DWIDTH 8 0
BBX 8 14 0 -1
BITMAP
18
24
24
18
81
DB
A5
81
99
66
42
7E
81
FF
ENDCHAR
STARTCHAR U+2656
ENCODING 9814
SWIDTH 533 0
DWIDTH 8 0
BBX 8 12 0 -1
BITMAP
DB
A5
81
FF
42
7E
24
24
42
7E
81
FF
ENDCHAR
STARTCHAR U+2657
ENCODING 9815
SWIDTH 533 0
DWIDTH 8 0
BBX 8 13 0 -1
BITMAP
18
18
24
52
52
BD
91
91
52
42
7E
81
FF
ENDCHAR
STARTCHAR U+2658
ENCODING 9816
SWIDTH 533 0
DWIDTH 8 0
BBX 8 13 0 -1
BITMAP
0E
12
69
89
81
F1
11
22
42
42
7E
81
FF
ENDCHAR
STARTCHAR U+2659
ENCODING 9817
SWIDTH 533 0
DWIDTH 8 0
BBX 8 10 0 -1
BITMAP
18
24
24
18
24
24
42
7E
81
FF
ENDCHAR
STARTCHAR U+265A
ENCODING 9818
SWIDTH 533 0
DWIDTH 8 0
BBX 8 13 0 -1
BITMAP
18
18
7E
7E
18
FF
DB
DB
E7
7E
7E
C3
FF
ENDCHAR
STARTCHAR U+265B
ENCODING 9819
SWIDTH 533 0
DWIDTH 8 0
BBX 8 14 0 -1
BITMAP
18
2C
3C
18
81
DB
FF
E7
FF
7E
7E
7E
C3
FF
ENDCHAR
STARTCHAR U+265C
ENCODING 9820
SWIDTH 533 0
DWIDTH 8 0
BBX 8 12 0 -1
BITMAP
DB
FF
FF
FF
7E
42
3C
3C
7E
7E
C3
FF
ENDCHAR
STARTCHAR U+265D
ENCODING 9821
SWIDTH 533 0
DWIDTH 8 0
BBX 8 13 0 -1
BITMAP
18
18
2C
6E
6E
C3
EF
EF
6E
7E
7E
C3
FF
ENDCHAR
STARTCHAR U+265E
ENCODING 9822
SWIDTH 533 0
DWIDTH 8 0
BBX 8 13 0 -1
BITMAP
0E
1E
77
F7
FF
FF
1F
3E
7E
7E
7E
C3
FF
ENDCHAR
STARTCHAR U+265F
ENCODING 9823
SWIDTH 533 0
DWIDTH 8 0
BBX 8 10 0 -1
BITMAP
18
2C
3C
18
3C
3C
7E
7E
C3
FF
ENDCHAR
STARTCHAR U+2660
ENCODING 9824
SWIDTH 533 0
DWIDTH 8 0
BBX 7 9 0 0
BITMAP
10
38
7C
FE
FE
FE
54
10
38
ENDCHAR
STARTCHAR U+2661
ENCODING 9825
SWIDTH 533 0
DWIDTH 8 0
BBX 7 8 0 0
BITMAP
6C
92
82
82
82
44
28
10
ENDCHAR
STARTCHAR U+2662
ENCODING 9826
SWIDTH 533 0
DWIDTH 8 0
BBX 7 10 0 0
BITMAP
10
28
44
44
82
82
44
44
28
10
ENDCHAR
STARTCHAR U+2663
ENCODING 9827
SWIDTH 533 0
DWIDTH 8 0
BBX 7 9 0 0
BITMAP
10
38
38
54
FE
FE
54
10
38
ENDCHAR
STARTCHAR U+2664
ENCODING 9828
SWIDTH 533 0
DWIDTH 8 0
BBX 7 9 0 0
BITMAP
10
28
44
82
82
BA
54
10
38
ENDCHAR
STARTCHAR U+2665
ENCODING 9829
SWIDTH 533 0
DWIDTH 8 0
BBX 7 8 0 0
BITMAP
6C
FE
FE
FE
FE
7C
38
10
ENDCHAR
STARTCHAR U+2666
ENCODING 9830
SWIDTH 533 0
DWIDTH 8 0
BBX 7 10 0 0
BITMAP
10
38
7C
7C
FE
FE
7C
7C
38
10
ENDCHAR
STARTCHAR U+2667
ENCODING 9831
SWIDTH 533 0
DWIDTH 8 0
BBX 7 8 0 0
BITMAP
10
28
10
54
BA
54
10
38
ENDCHAR
STARTCHAR U+2669
ENCODING 9833
SWIDTH 533 0
DWIDTH 8 0
BBX 4 11 2 -1
BITMAP
10
10
10
10
10
10
10
10
70
F0
E0
ENDCHAR
STARTCHAR U+266A
ENCODING 9834
SWIDTH 533 0
DWIDTH 8 0
BBX 7 11 1 -1
BITMAP
10
18
14
12
12
12
14
14
70
F0
E0
ENDCHAR
STARTCHAR U+266B
ENCODING 9835
SWIDTH 533 0
DWIDTH 8 0
BBX 7 11 0 -1
BITMAP
0E
32
22
22
22
22
22
26
6E
EC
C0
ENDCHAR
STARTCHAR U+266C
ENCODING 9836
SWIDTH 533 0
DWIDTH 8 0
BBX 7 11 0 -1
BITMAP
0E
3E
32
2E
32
22
22
26
6E
EC
C0
ENDCHAR
STARTCHAR U+266D
ENCODING 9837
SWIDTH 533 0
DWIDTH 8 0
BBX 4 10 2 -1
BITMAP
80
80
80
80
A0
D0
90
90
A0
C0
ENDCHAR
STARTCHAR U+266E
ENCODING 9838
SWIDTH 533 0
DWIDTH 8 0
BBX 4 9 2 -1
BITMAP
80
90
B0
D0
90
B0
D0
90
10
ENDCHAR
STARTCHAR U+266F
ENCODING 9839
SWIDTH 533 0
DWIDTH 8 0
BBX 5 10 1 -1
BITMAP
10
50
58
70
D0
58
70
D0
50
40
ENDCHAR
STARTCHAR U+26A2
ENCODING 9890
SWIDTH 533 0
DWIDTH 8 0
BBX 8 10 0 -1
BITMAP
7E
99
99
99
7E
24
24
FF
24
24
ENDCHAR
STARTCHAR U+26A3
ENCODING 9891
SWIDTH 533 0
DWIDTH 8 0
BBX 8 8 0 2
BITMAP
1C
0C
77
93
9D
64
24
18
ENDCHAR
STARTCHAR U+26A4
ENCODING 9892
SWIDTH 533 0
DWIDTH 8 0
BBX 8 14 0 -1
BITMAP
07
03
1D
24
74
98
88
88
70
20
20
F8
20
20
ENDCHAR
STARTCHAR U+26A5
ENCODING 9893
SWIDTH 533 0
DWIDTH 8 0
BBX 8 13 0 -1
BITMAP
0F
03
05
79
88
88
88
70
20
20
F8
20
20
ENDCHAR
STARTCHAR U+26A6
ENCODING 9894
SWIDTH 533 0
DWIDTH 8 0
BBX 8 8 0 1
BITMAP
07
03
1D
0C
74
90
90
60
ENDCHAR
STARTCHAR U+26A8
ENCODING 9896
SWIDTH 533 0
DWIDTH 8 0
BBX 5 12 1 -1
BITMAP
20
70
A8
70
88
88
88
70
20
F8
20
20
ENDCHAR
STARTCHAR U+26CE
ENCODING 9934
SWIDTH 1066 0
DWIDTH 16 0
BBX 12 12 2 0
BITMAP
3FC0
7FE0
FFF0
EF70
EF70
C350
AC30
EF70
EF70
F0F0
7FE0
3FC0
ENDCHAR
STARTCHAR U+2705
ENCODING 9989
SWIDTH 1066 0
DWIDTH 16 0
BBX 12 12 2 0
BITMAP
3FC0
7FE0
FFF0
FFB0
FF30
FE70
DCF0
C9F0
E3F0
F7F0
7FE0
3FC0
ENDCHAR
STARTCHAR U+2713
ENCODING 10003
SWIDTH 533 0
DWIDTH 8 0
BBX 8 6 0 2
BITMAP
01
02
04
88
50
20
ENDCHAR
STARTCHAR U+2714
ENCODING 10004
SWIDTH 533 0
DWIDTH 8 0
BBX 8 7 0 2
BITMAP
01
03
06
8C
D8
70
20
ENDCHAR
STARTCHAR U+2715
ENCODING 10005
SWIDTH 533 0
DWIDTH 8 0
BBX 6 6 1 2
BITMAP
84
48
30
30
48
84
ENDCHAR
STARTCHAR U+2716
ENCODING 10006
SWIDTH 533 0
DWIDTH 8 0
BBX 6 7 1 2
BITMAP
84
CC
78
30
78
CC
84
ENDCHAR
STARTCHAR U+2717
ENCODING 10007
SWIDTH 533 0
DWIDTH 8 0
BBX 6 9 1 1
BITMAP
40
44
6C
38
30
70
58
8C
84
ENDCHAR
STARTCHAR U+2718
ENCODING 10008
SWIDTH 533 0
DWIDTH 8 0
BBX 7 10 1 1
BITMAP
40
44
6C
78
38
30
78
7C
CC
86
ENDCHAR
STARTCHAR U+2719
ENCODING 10009
SWIDTH 533 0
DWIDTH 8 0
BBX 7 7 0 2
BITMAP
38
28
EE
82
EE
28
38
ENDCHAR
STARTCHAR U+271A
ENCODING 10010
SWIDTH 533 0
DWIDTH 8 0
BBX 7 7 0 2
BITMAP
38
38
FE
FE
FE
38
38
ENDCHAR
STARTCHAR U+271B
ENCODING 10011
SWIDTH 533 0
DWIDTH 8 0
BBX 7 7 0 2
BITMAP
10
10
10
EE
10
10
10
ENDCHAR
STARTCHAR U+271C
ENCODING 10012
SWIDTH 533 0
DWIDTH 8 0
BBX 7 7 0 2
BITMAP
38
38
C6
C6
C6
38
38
ENDCHAR
STARTCHAR U+271D
ENCODING 10013
SWIDTH 533 0
DWIDTH 8 0
BBX 7 9 0 1
BITMAP
10
10
10
FE
10
10
10
10
10
ENDCHAR
STARTCHAR U+271E
ENCODING 10014
SWIDTH 533 0
DWIDTH 8 0
BBX 7 9 0 1
BITMAP
38
28
EE
82
EE
28
28
28
38
ENDCHAR
STARTCHAR U+271F
ENCODING 10015
SWIDTH 533 0
DWIDTH 8 0
BBX 7 9 0 1
BITMAP
38
38
FE
FE
FE
38
38
38
38
ENDCHAR
STARTCHAR U+2729
ENCODING 10025
SWIDTH 533 0
DWIDTH 8 0
BBX 8 9 0 1
BITMAP
08
18
14
E7
42
24
3C
66
42
ENDCHAR
STARTCHAR U+272A
ENCODING 10026
SWIDTH 533 0
DWIDTH 8 0
BBX 8 12 0 -1
BITMAP
7E
FF
F7
E7
00
81
C3
C3
99
BD
FF
7E
ENDCHAR
STARTCHAR U+274C
ENCODING 10060
SWIDTH 1066 0
DWIDTH 16 0
BBX 10 10 3 1
BITMAP
C0C0
6180
3300
1E00
0C00
1E00
3300
6180
C0C0
8040
ENDCHAR
STARTCHAR U+274E
ENCODING 10062
SWIDTH 1066 0
DWIDTH 16 0
BBX 12 12 2 0
BITMAP
3FC0
7FE0
CF30
E670
F0F0
F9F0
F0F0
E670
CF30
DFB0
7FE0
3FC0
ENDCHAR
STARTCHAR U+2753
ENCODING 10067
SWIDTH 533 0
DWIDTH 8 0
BBX 6 13 1 -1
BITMAP
78
FC
CC
CC
0C
1C
38
30
30
30
00
30
30
ENDCHAR
STARTCHAR U+2755
ENCODING 10069
SWIDTH 533 0
DWIDTH 8 0
BBX 2 13 3 -1
BITMAP
C0
C0
C0
C0
C0
C0
C0
C0
C0
C0
00
C0
C0
ENDCHAR
STARTCHAR U+2757
ENCODING 10071
SWIDTH 533 0
DWIDTH 8 0
BBX 2 13 3 -1
BITMAP
C0
C0
C0
C0
C0
C0
C0
C0
C0
C0
00
C0
C0
ENDCHAR
STARTCHAR U+2801
ENCODING 10241
SWIDTH 533 0
DWIDTH 8 0
BBX 2 2 1 11
BITMAP
C0
C0
ENDCHAR
STARTCHAR U+2802
ENCODING 10242
SWIDTH 533 0
DWIDTH 8 0
BBX 2 2 1 7
BITMAP
C0
C0
ENDCHAR
STARTCHAR U+2803
ENCODING 10243
SWIDTH 533 0
DWIDTH 8 0
BBX 2 6 1 7
BITMAP
C0
C0
00
00
C0
C0
ENDCHAR
STARTCHAR U+2804
ENCODING 10244
SWIDTH 533 0
DWIDTH 8 0
BBX 2 2 1 3
BITMAP
C0
C0
ENDCHAR
STARTCHAR U+2805
ENCODING 10245
SWIDTH 533 0
DWIDTH 8 0
BBX 2 10 1 3
BITMAP
C0
C0
00
00
00
00
00
00
C0
C0
ENDCHAR
STARTCHAR U+2806
ENCODING 10246
SWIDTH 533 0
DWIDTH 8 0
BBX 2 6 1 3
BITMAP
C0
C0
00
00
C0
C0
ENDCHAR
STARTCHAR U+2807
ENCODING 10247
SWIDTH 533 0
DWIDTH 8 0
BBX 2 10 1 3
BITMAP
C0
C0
00
00
C0
C0
00
00
C0
C0
ENDCHAR
STARTCHAR U+2808
ENCODING 10248
SWIDTH 533 0
DWIDTH 8 0
BBX 2 2 5 11
BITMAP
C0
C0
ENDCHAR
STARTCHAR U+2809
ENCODING 10249
SWIDTH 533 0
DWIDTH 8 0
BBX 6 2 1 11
BITMAP
CC
CC
ENDCHAR
STARTCHAR U+280A
ENCODING 10250
SWIDTH 533 0
DWIDTH 8 0
BBX 6 6 1 7
BITMAP
0C
0C
00
00
C0
C0
ENDCHAR
STARTCHAR U+280B
ENCODING 10251
SWIDTH 533 0
DWIDTH 8 0
BBX 6 6 1 7
BITMAP
CC
CC
00
00
C0
C0
ENDCHAR
STARTCHAR U+280C
ENCODING 10252
SWIDTH 533 0
DWIDTH 8 0
BBX 6 10 1 3
BITMAP
0C
0C
00
00
00
00
00
00
C0
C0
ENDCHAR
STARTCHAR U+280D
ENCODING 10253
SWIDTH 533 0
DWIDTH 8 0
BBX 6 10 1 3
BITMAP
CC
CC
00
00
00
00
00
00
C0
C0
ENDCHAR
STARTCHAR U+280E
ENCODING 10254
SWIDTH 533 0
DWIDTH 8 0
BBX 6 10 1 3
BITMAP
0C
0C
00
00
C0
C0
00
00
C0
C0
ENDCHAR
STARTCHAR U+280F
ENCODING 10255
SWIDTH 533 0
DWIDTH 8 0
BBX 6 10 1 3
BITMAP
CC
CC
00
00
C0
C0
00
00
C0
C0
ENDCHAR
STARTCHAR U+2810
ENCODING 10256
SWIDTH 533 0
DWIDTH 8 0
BBX 2 2 5 7
BITMAP
C0
C0
ENDCHAR
STARTCHAR U+2811
ENCODING 10257
SWIDTH 533 0
DWIDTH 8 0
BBX 6 6 1 7
BITMAP
C0
C0
00
00
0C
0C
ENDCHAR
STARTCHAR U+2812
ENCODING 10258
SWIDTH 533 0
DWIDTH 8 0
BBX 6 2 1 7
BITMAP
CC
CC
ENDCHAR
STARTCHAR U+2813
ENCODING 10259
SWIDTH 533 0
DWIDTH 8 0
BBX 6 6 1 7
BITMAP
C0
C0
00
00
CC
CC
ENDCHAR
STARTCHAR U+2814
ENCODING 10260
SWIDTH 533 0
DWIDTH 8 0
BBX 6 6 1 3
BITMAP
0C
0C
00
00
C0
C0
ENDCHAR
STARTCHAR U+2815
ENCODING 10261
SWIDTH 533 0
DWIDTH 8 0
BBX 6 10 1 3
BITMAP
C0
C0
00
00
0C
0C
00
00
C0
C0
ENDCHAR
STARTCHAR U+2816
ENCODING 10262
SWIDTH 533 0
DWIDTH 8 0
BBX 6 6 1 3
BITMAP
CC
CC
00
00
C0
C0
ENDCHAR
STARTCHAR U+2817
ENCODING 10263
SWIDTH 533 0
DWIDTH 8 0
BBX 6 10 1 3
BITMAP
C0
C0
00
00
CC
CC
00
00
C0
C0
ENDCHAR
STARTCHAR U+2818
ENCODING 10264
SWIDTH 533 0
DWIDTH 8 0
BBX 2 6 1 7
BITMAP
C0
C0
00
00
C0
C0
ENDCHAR
STARTCHAR U+2819
ENCODING 10265
SWIDTH 533 0
DWIDTH 8 0
BBX 6 6 1 7
BITMAP
CC
CC
00
00
0C
0C
ENDCHAR
STARTCHAR U+281A
ENCODING 10266
SWIDTH 533 0
DWIDTH 8 0
BBX 6 6 1 7
BITMAP
0C
0C
00
00
CC
CC
ENDCHAR
STARTCHAR U+281B
ENCODING 10267
SWIDTH 533 0
DWIDTH 8 0
BBX 6 6 1 7
BITMAP
CC
CC
00
00
CC
CC
ENDCHAR
STARTCHAR U+281C
ENCODING 10268
SWIDTH 533 0
DWIDTH 8 0
BBX 6 10 1 3
BITMAP
0C
0C
00
00
0C
0C
00
00
C0
C0
ENDCHAR
STARTCHAR U+281D
ENCODING 10269
SWIDTH 533 0
DWIDTH 8 0
BBX 6 10 1 3
BITMAP
CC
CC
00
00
0C
0C
00
00
C0
C0
ENDCHAR
STARTCHAR U+281E
ENCODING 10270
SWIDTH 533 0
DWIDTH 8 0
BBX 6 10 1 3
BITMAP
0C
0C
00
00
CC
CC
00
00
C0
C0
ENDCHAR
STARTCHAR U+281F
ENCODING 10271
SWIDTH 533 0
DWIDTH 8 0
BBX 6 10 1 3
BITMAP
CC
CC
00
00
CC
CC
00
00
C0
C0
ENDCHAR
STARTCHAR U+2820
ENCODING 10272
SWIDTH 533 0
DWIDTH 8 0
BBX 2 2 5 3
BITMAP
C0
C0
ENDCHAR
STARTCHAR U+2821
ENCODING 10273
SWIDTH 533 0
DWIDTH 8 0
BBX 6 10 1 3
BITMAP
C0
C0
00
00
00
00
00
00
0C
0C
ENDCHAR
STARTCHAR U+2822
ENCODING 10274
SWIDTH 533 0
DWIDTH 8 0
BBX 6 6 1 3
BITMAP
C0
C0
00
00
0C
0C
ENDCHAR
STARTCHAR U+2823
ENCODING 10275
SWIDTH 533 0
DWIDTH 8 0
BBX 6 10 1 3
BITMAP
C0
C0
00
00
C0
C0
00
00
0C
0C
ENDCHAR
STARTCHAR U+2824
ENCODING 10276
SWIDTH 533 0
DWIDTH 8 0
BBX 6 2 1 3
BITMAP
CC
CC
ENDCHAR
STARTCHAR U+2825
ENCODING 10277
SWIDTH 533 0
DWIDTH 8 0
BBX 6 10 1 3
BITMAP
C0
C0
00
00
00
00
00
00
CC
CC
ENDCHAR
STARTCHAR U+2826
ENCODING 10278
SWIDTH 533 0
DWIDTH 8 0
BBX 6 6 1 3
BITMAP
C0
C0
00
00
CC
CC
ENDCHAR
STARTCHAR U+2827
ENCODING 10279
SWIDTH 533 0
DWIDTH 8 0
BBX 6 10 1 3
BITMAP
C0
C0
00
00
C0
C0
00
00
CC
CC
ENDCHAR
STARTCHAR U+2828
ENCODING 10280
SWIDTH 533 0
DWIDTH 8 0
BBX 2 10 5 3
BITMAP
C0
C0
00
00
00
00
00
00
C0
C0
ENDCHAR
STARTCHAR U+2829
ENCODING 10281
SWIDTH 533 0
DWIDTH 8 0
BBX 6 10 1 3
BITMAP
CC
CC
00
00
00
00
00
00
0C
0C
ENDCHAR
STARTCHAR U+282A
ENCODING 10282
SWIDTH 533 0
DWIDTH 8 0
BBX 6 10 1 3
BITMAP
0C
0C
00
00
C0
C0
00
00
0C
0C
ENDCHAR
STARTCHAR U+282B
ENCODING 10283
SWIDTH 533 0
DWIDTH 8 0
BBX 6 10 1 3
BITMAP
CC
CC
00
00
C0
C0
00
00
0C
0C
ENDCHAR
STARTCHAR U+282C
ENCODING 10284
SWIDTH 533 0
DWIDTH 8 0
BBX 6 10 1 3
BITMAP
0C
0C
00
00
00
00
00
00
CC
CC
ENDCHAR
STARTCHAR U+282D
ENCODING 10285
SWIDTH 533 0
DWIDTH 8 0
BBX 6 10 1 3
BITMAP
CC
CC
00
00
00
00
00
00
CC
CC
ENDCHAR
STARTCHAR U+282E
ENCODING 10286
SWIDTH 533 0
DWIDTH 8 0
BBX 6 10 1 3
BITMAP
0C
0C
00
00
C0
C0
00
00
CC
CC
ENDCHAR
STARTCHAR U+282F
ENCODING 10287
SWIDTH 533 0
DWIDTH 8 0
BBX 6 10 1 3
BITMAP
CC
CC
00
00
C0
C0
00
00
CC
CC
ENDCHAR
STARTCHAR U+2830
ENCODING 10288
SWIDTH 533 0
DWIDTH 8 0
BBX 2 6 5 3
BITMAP
C0
C0
00
00
C0
C0
ENDCHAR
STARTCHAR U+2831
ENCODING 10289
SWIDTH 533 0
DWIDTH 8 0
BBX 6 10 1 3
BITMAP
C0
C0
00
00
0C
0C
00
00
0C
0C
ENDCHAR
STARTCHAR U+2832
ENCODING 10290
SWIDTH 533 0
DWIDTH 8 0
BBX 6 6 1 3
BITMAP
CC
CC
00
00
0C
0C
ENDCHAR
STARTCHAR U+2833
ENCODING 10291
SWIDTH 533 0
DWIDTH 8 0
BBX 6 10 1 3
BITMAP
C0
C0
00
00
CC
CC
00
00
0C
0C
ENDCHAR
STARTCHAR U+2834
ENCODING 10292
SWIDTH 533 0
DWIDTH 8 0
BBX 6 6 1 3
BITMAP
0C
0C
00
00
CC
CC
ENDCHAR
STARTCHAR U+2835
ENCODING 10293
SWIDTH 533 0
DWIDTH 8 0
BBX 6 10 1 3
BITMAP
C0
C0
00
00
0C
0C
00
00
CC
CC
ENDCHAR
STARTCHAR U+2836
ENCODING 10294
SWIDTH 533 0
DWIDTH 8 0
BBX 6 6 1 3
BITMAP
CC
CC
00
00
CC
CC
ENDCHAR
STARTCHAR U+2837
ENCODING 10295
SWIDTH 533 0
DWIDTH 8 0
BBX 6 10 1 3
BITMAP
C0
C0
00
00
CC
CC
00
00
CC
CC
ENDCHAR
STARTCHAR U+2838
ENCODING 10296
SWIDTH 533 0
DWIDTH 8 0
BBX 2 10 5 3
BITMAP
C0
C0
00
00
C0
C0
00
00
C0
C0
ENDCHAR
STARTCHAR U+2839
ENCODING 10297
SWIDTH 533 0
DWIDTH 8 0
BBX 6 10 1 3
BITMAP
CC
CC
00
00
0C
0C
00
00
0C
0C
ENDCHAR
STARTCHAR U+283A
ENCODING 10298
SWIDTH 533 0
DWIDTH 8 0
BBX 6 10 1 3
BITMAP
0C
0C
00
00
CC
CC
00
00
0C
0C
ENDCHAR
STARTCHAR U+283B
ENCODING 10299
SWIDTH 533 0
DWIDTH 8 0
BBX 6 10 1 3
BITMAP
CC
CC
00
00
CC
CC
00
00
0C
0C
ENDCHAR
STARTCHAR U+283C
ENCODING 10300
SWIDTH 533 0
DWIDTH 8 0
BBX 6 10 1 3
BITMAP
0C
0C
00
00
0C
0C
00
00
CC
CC
ENDCHAR
STARTCHAR U+283D
ENCODING 10301
SWIDTH 533 0
DWIDTH 8 0
BBX 6 10 1 3
BITMAP
CC
CC
00
00
0C
0C
00
00
CC
CC
ENDCHAR
STARTCHAR U+283E
ENCODING 10302
SWIDTH 533 0
DWIDTH 8 0
BBX 6 10 1 3
BITMAP
0C
0C
00
00
CC
CC
00
00
CC
CC
ENDCHAR
STARTCHAR U+283F
ENCODING 10303
SWIDTH 533 0
DWIDTH 8 0
BBX 6 10 1 3
BITMAP
CC
CC
00
00
CC
CC
00
00
CC
CC
ENDCHAR
STARTCHAR U+2840
ENCODING 10304
SWIDTH 533 0
DWIDTH 8 0
BBX 2 2 1 -1
BITMAP
C0
C0
ENDCHAR
STARTCHAR U+2841
ENCODING 10305
SWIDTH 533 0
DWIDTH 8 0
BBX 2 14 1 -1
BITMAP
C0
C0
00
00
00
00
00
00
00
00
00
00
C0
C0
ENDCHAR
STARTCHAR U+2842
ENCODING 10306
SWIDTH 533 0
DWIDTH 8 0
BBX 2 10 1 -1
BITMAP
C0
C0
00
00
00
00
00
00
C0
C0
ENDCHAR
STARTCHAR U+2843
ENCODING 10307
SWIDTH 533 0
DWIDTH 8 0
BBX 2 14 1 -1
BITMAP
C0
C0
00
00
C0
C0
00
00
00
00
00
00
C0
C0
ENDCHAR
STARTCHAR U+2844
ENCODING 10308
SWIDTH 533 0
DWIDTH 8 0
BBX 2 6 1 -1
BITMAP
C0
C0
00
00
C0
C0
ENDCHAR
STARTCHAR U+2845
ENCODING 10309
SWIDTH 533 0
DWIDTH 8 0
BBX 2 14 1 -1
BITMAP
C0
C0
00
00
00
00
00
00
C0
C0
00
00
C0
C0
ENDCHAR
STARTCHAR U+2846
ENCODING 10310
SWIDTH 533 0
DWIDTH 8 0
BBX 2 10 1 -1
BITMAP
C0
C0
00
00
C0
C0
00
00
C0
C0
ENDCHAR
STARTCHAR U+2847
ENCODING 10311
SWIDTH 533 0
DWIDTH 8 0
BBX 2 14 1 -1
BITMAP
C0
C0
00
00
C0
C0
00
00
C0
C0
00
00
C0
C0
ENDCHAR
STARTCHAR U+2848
ENCODING 10312
SWIDTH 533 0
DWIDTH 8 0
BBX 6 14 1 -1
BITMAP
0C
0C
00
00
00
00
00
00
00
00
00
00
C0
C0
ENDCHAR
STARTCHAR U+2849
ENCODING 10313
SWIDTH 533 0
DWIDTH 8 0
BBX 6 14 1 -1
BITMAP
CC
CC
00
00
00
00
00
00
00
00
00
00
C0
C0
ENDCHAR
STARTCHAR U+284A
ENCODING 10314
SWIDTH 533 0
DWIDTH 8 0
BBX 6 14 1 -1
BITMAP
0C
0C
00
00
C0
C0
00
00
00
00
00
00
C0
C0
ENDCHAR
STARTCHAR U+284B
ENCODING 10315
SWIDTH 533 0
DWIDTH 8 0
BBX 6 14 1 -1
BITMAP
CC
CC
00
00
C0
C0
00
00
00
00
00
00
C0
C0
ENDCHAR
STARTCHAR U+284C
ENCODING 10316
SWIDTH 533 0
DWIDTH 8 0
BBX 6 14 1 -1
BITMAP
0C
0C
00
00
00
00
00
00
C0
C0
00
00
C0
C0
ENDCHAR
STARTCHAR U+284D
ENCODING 10317
SWIDTH 533 0
DWIDTH 8 0
BBX 6 14 1 -1
BITMAP
CC
CC
00
00
00
00
00
00
C0
C0
00
00
C0
C0
ENDCHAR
STARTCHAR U+284E
ENCODING 10318
SWIDTH 533 0
DWIDTH 8 0
BBX 6 14 1 -1
BITMAP
0C
0C
00
00
C0
C0
00
00
C0
C0
00
00
C0
C0
ENDCHAR
STARTCHAR U+284F
ENCODING 10319
SWIDTH 533 0
DWIDTH 8 0
BBX 6 14 1 -1
BITMAP
CC
CC
00
00
C0
C0
00
00
C0
C0
00
00
C0
C0
ENDCHAR
STARTCHAR U+2850
ENCODING 10320
SWIDTH 533 0
DWIDTH 8 0
BBX 6 10 1 -1
BITMAP
0C
0C
00
00
00
00
00
00
C0
C0
ENDCHAR
STARTCHAR U+2851
ENCODING 10321
SWIDTH 533 0
DWIDTH 8 0
BBX 6 14 1 -1
BITMAP
C0
C0
00
00
0C
0C
00
00
00
00
00
00
C0
C0
ENDCHAR
STARTCHAR U+2852
ENCODING 10322
SWIDTH 533 0
DWIDTH 8 0
BBX 6 10 1 -1
BITMAP
CC
CC
00
00
00
00
00
00
C0
C0
ENDCHAR
STARTCHAR U+2853
ENCODING 10323
SWIDTH 533 0
DWIDTH 8 0
BBX 6 14 1 -1
BITMAP
C0
C0
00
00
CC
CC
00
00
00
00
00
00
C0
C0
ENDCHAR
STARTCHAR U+2854
ENCODING 10324
SWIDTH 533 0
DWIDTH 8 0
BBX 6 10 1 -1
BITMAP
0C
0C
00
00
C0
C0
00
00
C0
C0
ENDCHAR
STARTCHAR U+2855
ENCODING 10325
SWIDTH 533 0
DWIDTH 8 0
BBX 6 14 1 -1
BITMAP
C0
C0
00
00
0C
0C
00
00
C0
C0
00
00
C0
C0
ENDCHAR
STARTCHAR U+2856
ENCODING 10326
SWIDTH 533 0
DWIDTH 8 0
BBX 6 10 1 -1
BITMAP
CC
CC
00
00
C0
C0
00
00
C0
C0
ENDCHAR
STARTCHAR U+2857
ENCODING 10327
SWIDTH 533 0
DWIDTH 8 0
BBX 6 14 1 -1
BITMAP
C0
C0
00
00
CC
CC
00
00
C0
C0
00
00
C0
C0
ENDCHAR
STARTCHAR U+2858
ENCODING 10328
SWIDTH 533 0
DWIDTH 8 0
BBX 6 14 1 -1
BITMAP
0C
0C
00
00
0C
0C
00
00
00
00
00
00
C0
C0
ENDCHAR
STARTCHAR U+2859
ENCODING 10329
SWIDTH 533 0
DWIDTH 8 0
BBX 6 14 1 -1
BITMAP
CC
CC
00
00
0C
0C
00
00
00
00
00
00
C0
C0
ENDCHAR
STARTCHAR U+285A
ENCODING 10330
SWIDTH 533 0
DWIDTH 8 0
BBX 6 14 1 -1
BITMAP
0C
0C
00
00
CC
CC
00
00
00
00
00
00
C0
C0
ENDCHAR
STARTCHAR U+285B
ENCODING 10331
SWIDTH 533 0
DWIDTH 8 0
BBX 6 14 1 -1
BITMAP
CC
CC
00
00
CC
CC
00
00
00
00
00
00
C0
C0
ENDCHAR
STARTCHAR U+285C
ENCODING 10332
SWIDTH 533 0
DWIDTH 8 0
BBX 6 14 1 -1
BITMAP
0C
0C
00
00
0C
0C
00
00
C0
C0
00
00
C0
C0
ENDCHAR
STARTCHAR U+285D
ENCODING 10333
SWIDTH 533 0
DWIDTH 8 0
BBX 6 14 1 -1
BITMAP
CC
CC
00
00
0C
0C
00
00
C0
C0
00
00
C0
C0
ENDCHAR
STARTCHAR U+285E
ENCODING 10334
SWIDTH 533 0
DWIDTH 8 0
BBX 6 14 1 -1
BITMAP
0C
0C
00
00
CC
CC
00
00
C0
C0
00
00
C0
C0
ENDCHAR
STARTCHAR U+285F
ENCODING 10335
SWIDTH 533 0
DWIDTH 8 0
BBX 6 14 1 -1
BITMAP
CC
CC
00
00
CC
CC
00
00
C0
C0
00
00
C0
C0
ENDCHAR
STARTCHAR U+2860
ENCODING 10336
SWIDTH 533 0
DWIDTH 8 0
BBX 6 6 1 -1
BITMAP
0C
0C
00
00
C0
C0
ENDCHAR
STARTCHAR U+2861
ENCODING 10337
SWIDTH 533 0
DWIDTH 8 0
BBX 6 14 1 -1
BITMAP
C0
C0
00
00
00
00
00
00
0C
0C
00
00
C0
C0
ENDCHAR
STARTCHAR U+2862
ENCODING 10338
SWIDTH 533 0
DWIDTH 8 0
BBX 6 10 1 -1
BITMAP
C0
C0
00
00
0C
0C
00
00
C0
C0
ENDCHAR
STARTCHAR U+2863
ENCODING 10339
SWIDTH 533 0
DWIDTH 8 0
BBX 6 14 1 -1
BITMAP
C0
C0
00
00
C0
C0
00
00
0C
0C
00
00
C0
C0
ENDCHAR
STARTCHAR U+2864
ENCODING 10340
SWIDTH 533 0
DWIDTH 8 0
BBX 6 6 1 -1
BITMAP
CC
CC
00
00
C0
C0
ENDCHAR
STARTCHAR U+2865
ENCODING 10341
SWIDTH 533 0
DWIDTH 8 0
BBX 6 14 1 -1
BITMAP
C0
C0
00
00
00
00
00
00
CC
CC
00
00
C0
C0
ENDCHAR
STARTCHAR U+2866
ENCODING 10342
SWIDTH 533 0
DWIDTH 8 0
BBX 6 10 1 -1
BITMAP
C0
C0
00
00
CC
CC
00
00
C0
C0
ENDCHAR
STARTCHAR U+2867
ENCODING 10343
SWIDTH 533 0
DWIDTH 8 0
BBX 6 14 1 -1
BITMAP
C0
C0
00
00
C0
C0
00
00
CC
CC
00
00
C0
C0
ENDCHAR
STARTCHAR U+2868
ENCODING 10344
SWIDTH 533 0
DWIDTH 8 0
BBX 6 14 1 -1
BITMAP
0C
0C
00
00
00
00
00
00
0C
0C
00
00
C0
C0
ENDCHAR
STARTCHAR U+2869
ENCODING 10345
SWIDTH 533 0
DWIDTH 8 0
BBX 6 14 1 -1
BITMAP
CC
CC
00
00
00
00
00
00
0C
0C
00
00
C0
C0
ENDCHAR
STARTCHAR U+286A
ENCODING 10346
SWIDTH 533 0
DWIDTH 8 0
BBX 6 14 1 -1
BITMAP
0C
0C
00
00
C0
C0
00
00
0C
0C
00
00
C0
C0
ENDCHAR
STARTCHAR U+286B
ENCODING 10347
SWIDTH 533 0
DWIDTH 8 0
BBX 6 14 1 -1
BITMAP
CC
CC
00
00
C0
C0
00
00
0C
0C
00
00
C0
C0
ENDCHAR
STARTCHAR U+286C
ENCODING 10348
SWIDTH 533 0
DWIDTH 8 0
BBX 6 14 1 -1
BITMAP
0C
0C
00
00
00
00
00
00
CC
CC
00
00
C0
C0
ENDCHAR
STARTCHAR U+286D
ENCODING 10349
SWIDTH 533 0
DWIDTH 8 0
BBX 6 14 1 -1
BITMAP
CC
CC
00
00
00
00
00
00
CC
CC
00
00
C0
C0
ENDCHAR
STARTCHAR U+286E
ENCODING 10350
SWIDTH 533 0
DWIDTH 8 0
BBX 6 14 1 -1
BITMAP
0C
0C
00
00
C0
C0
00
00
CC
CC
00
00
C0
C0
ENDCHAR
STARTCHAR U+286F
ENCODING 10351
SWIDTH 533 0
DWIDTH 8 0
BBX 6 14 1 -1
BITMAP
CC
CC
00
00
C0
C0
00
00
CC
CC
00
00
C0
C0
ENDCHAR
STARTCHAR U+2870
ENCODING 10352
SWIDTH 533 0
DWIDTH 8 0
BBX 6 10 1 -1
BITMAP
0C
0C
00
00
0C
0C
00
00
C0
C0
ENDCHAR
STARTCHAR U+2871
ENCODING 10353
SWIDTH 533 0
DWIDTH 8 0
BBX 6 14 1 -1
BITMAP
C0
C0
00
00
0C
0C
00
00
0C
0C
00
00
C0
C0
ENDCHAR
STARTCHAR U+2872
ENCODING 10354
SWIDTH 533 0
DWIDTH 8 0
BBX 6 10 1 -1
BITMAP
CC
CC
00
00
0C
0C
00
00
C0
C0
ENDCHAR
STARTCHAR U+2873
ENCODING 10355
SWIDTH 533 0
DWIDTH 8 0
BBX 6 14 1 -1
BITMAP
C0
C0
00
00
CC
CC
00
00
0C
0C
00
00
C0
C0
ENDCHAR
STARTCHAR U+2874
ENCODING 10356
SWIDTH 533 0
DWIDTH 8 0
BBX 6 10 1 -1
BITMAP
0C
0C
00
00
CC
CC
00
00
C0
C0
ENDCHAR
STARTCHAR U+2875
ENCODING 10357
SWIDTH 533 0
DWIDTH 8 0
BBX 6 14 1 -1
BITMAP
C0
C0
00
00
0C
0C
00
00
CC
CC
00
00
C0
C0
ENDCHAR
STARTCHAR U+2876
ENCODING 10358
SWIDTH 533 0
DWIDTH 8 0
BBX 6 10 1 -1
BITMAP
CC
CC
00
00
CC
CC
00
00
C0
C0
ENDCHAR
STARTCHAR U+2877
ENCODING 10359
SWIDTH 533 0
DWIDTH 8 0
BBX 6 14 1 -1
BITMAP
C0
C0
00
00
CC
CC
00
00
CC
CC
00
00
C0
C0
ENDCHAR
STARTCHAR U+2878
ENCODING 10360
SWIDTH 533 0
DWIDTH 8 0
BBX 6 14 1 -1
BITMAP
0C
0C
00
00
0C
0C
00
00
0C
0C
00
00
C0
C0
ENDCHAR
STARTCHAR U+2879
ENCODING 10361
SWIDTH 533 0
DWIDTH 8 0
BBX 6 14 1 -1
BITMAP
CC
CC
00
00
0C
0C
00
00
0C
0C
00
00
C0
C0
ENDCHAR
STARTCHAR U+287A
ENCODING 10362
SWIDTH 533 0
DWIDTH 8 0
BBX 6 14 1 -1
BITMAP
0C
0C
00
00
CC
CC
00
00
0C
0C
00
00
C0
C0
ENDCHAR
STARTCHAR U+287B
ENCODING 10363
SWIDTH 533 0
DWIDTH 8 0
BBX 6 14 1 -1
BITMAP
CC
CC
00
00
CC
CC
00
00
0C
0C
00
00
C0
C0
ENDCHAR
STARTCHAR U+287C
ENCODING 10364
SWIDTH 533 0
DWIDTH 8 0
BBX 6 14 1 -1
BITMAP
0C
0C
00
00
0C
0C
00
00
CC
CC
00
00
C0
C0
ENDCHAR
STARTCHAR U+287D
ENCODING 10365
SWIDTH 533 0
DWIDTH 8 0
BBX 6 14 1 -1
BITMAP
CC
CC
00
00
0C
0C
00
00
CC
CC
00
00
C0
C0
ENDCHAR
STARTCHAR U+287E
ENCODING 10366
SWIDTH 533 0
DWIDTH 8 0
BBX 6 14 1 -1
BITMAP
0C
0C
00
00
CC
CC
00
00
CC
CC
00
00
C0
C0
ENDCHAR
STARTCHAR U+287F
ENCODING 10367
SWIDTH 533 0
DWIDTH 8 0
BBX 6 14 1 -1
BITMAP
CC
CC
00
00
CC
CC
00
00
CC
CC
00
00
C0
C0
ENDCHAR
STARTCHAR U+2880
ENCODING 10368
SWIDTH 533 0
DWIDTH 8 0
BBX 2 2 5 -1
BITMAP
C0
C0
ENDCHAR
STARTCHAR U+2881
ENCODING 10369
SWIDTH 533 0
DWIDTH 8 0
BBX 6 14 1 -1
BITMAP
C0
C0
00
00
00
00
00
00
00
00
00
00
0C
0C
ENDCHAR
STARTCHAR U+2882
ENCODING 10370
SWIDTH 533 0
DWIDTH 8 0
BBX 6 10 1 -1
BITMAP
C0
C0
00
00
00
00
00
00
0C
0C
ENDCHAR
STARTCHAR U+2883
ENCODING 10371
SWIDTH 533 0
DWIDTH 8 0
BBX 6 14 1 -1
BITMAP
C0
C0
00
00
C0
C0
00
00
00
00
00
00
0C
0C
ENDCHAR
STARTCHAR U+2884
ENCODING 10372
SWIDTH 533 0
DWIDTH 8 0
BBX 6 6 1 -1
BITMAP
C0
C0
00
00
0C
0C
ENDCHAR
STARTCHAR U+2885
ENCODING 10373
SWIDTH 533 0
DWIDTH 8 0
BBX 6 14 1 -1
BITMAP
C0
C0
00
00
00
00
00
00
C0
C0
00
00
0C
0C
ENDCHAR
STARTCHAR U+2886
ENCODING 10374
SWIDTH 533 0
DWIDTH 8 0
BBX 6 10 1 -1
BITMAP
C0
C0
00
00
C0
C0
00
00
0C
0C
ENDCHAR
STARTCHAR U+2887
ENCODING 10375
SWIDTH 533 0
DWIDTH 8 0
BBX 6 14 1 -1
BITMAP
C0
C0
00
00
C0
C0
00
00
C0
C0
00
00
0C
0C
ENDCHAR
STARTCHAR U+2888
ENCODING 10376
SWIDTH 533 0
DWIDTH 8 0
BBX 2 14 5 -1
BITMAP
C0
C0
00
00
00
00
00
00
00
00
00
00
C0
C0
ENDCHAR
STARTCHAR U+2889
ENCODING 10377
SWIDTH 533 0
DWIDTH 8 0
BBX 6 14 1 -1
BITMAP
CC
CC
00
00
00
00
00
00
00
00
00
00
0C
0C
ENDCHAR
STARTCHAR U+288A
ENCODING 10378
SWIDTH 533 0
DWIDTH 8 0
BBX 6 14 1 -1
BITMAP
0C
0C
00
00
C0
C0
00
00
00
00
00
00
0C
0C
ENDCHAR
STARTCHAR U+288B
ENCODING 10379
SWIDTH 533 0
DWIDTH 8 0
BBX 6 14 1 -1
BITMAP
CC
CC
00
00
C0
C0
00
00
00
00
00
00
0C
0C
ENDCHAR
STARTCHAR U+288C
ENCODING 10380
SWIDTH 533 0
DWIDTH 8 0
BBX 6 14 1 -1
BITMAP
0C
0C
00
00
00
00
00
00
C0
C0
00
00
0C
0C
ENDCHAR
STARTCHAR U+288D
ENCODING 10381
SWIDTH 533 0
DWIDTH 8 0
BBX 6 14 1 -1
BITMAP
CC
CC
00
00
00
00
00
00
C0
C0
00
00
0C
0C
ENDCHAR
STARTCHAR U+288E
ENCODING 10382
SWIDTH 533 0
DWIDTH 8 0
BBX 6 14 1 -1
BITMAP
0C
0C
00
00
C0
C0
00
00
C0
C0
00
00
0C
0C
ENDCHAR
STARTCHAR U+288F
ENCODING 10383
SWIDTH 533 0
DWIDTH 8 0
BBX 6 14 1 -1
BITMAP
CC
CC
00
00
C0
C0
00
00
C0
C0
00
00
0C
0C
ENDCHAR
STARTCHAR U+2890
ENCODING 10384
SWIDTH 533 0
DWIDTH 8 0
BBX 2 10 5 -1
BITMAP
C0
C0
00
00
00
00
00
00
C0
C0
ENDCHAR
STARTCHAR U+2891
ENCODING 10385
SWIDTH 533 0
DWIDTH 8 0
BBX 6 14 1 -1
BITMAP
C0
C0
00
00
0C
0C
00
00
00
00
00
00
0C
0C
ENDCHAR
STARTCHAR U+2892
ENCODING 10386
SWIDTH 533 0
DWIDTH 8 0
BBX 6 10 1 -1
BITMAP
CC
CC
00
00
00
00
00
00
0C
0C
ENDCHAR
STARTCHAR U+2893
ENCODING 10387
SWIDTH 533 0
DWIDTH 8 0
BBX 6 14 1 -1
BITMAP
C0
C0
00
00
CC
CC
00
00
00
00
00
00
0C
0C
ENDCHAR
STARTCHAR U+2894
ENCODING 10388
SWIDTH 533 0
DWIDTH 8 0
BBX 6 10 1 -1
BITMAP
0C
0C
00
00
C0
C0
00
00
0C
0C
ENDCHAR
STARTCHAR U+2895
ENCODING 10389
SWIDTH 533 0
DWIDTH 8 0
BBX 6 14 1 -1
BITMAP
C0
C0
00
00
0C
0C
00
00
C0
C0
00
00
0C
0C
ENDCHAR
STARTCHAR U+2896
ENCODING 10390
SWIDTH 533 0
DWIDTH 8 0
BBX 6 10 1 -1
BITMAP
CC
CC
00
00
C0
C0
00
00
0C
0C
ENDCHAR
STARTCHAR U+2897
ENCODING 10391
SWIDTH 533 0
DWIDTH 8 0
BBX 6 14 1 -1
BITMAP
C0
C0
00
00
CC
CC
00
00
C0
C0
00
00
0C
0C
ENDCHAR
STARTCHAR U+2898
ENCODING 10392
SWIDTH 533 0
DWIDTH 8 0
BBX 2 14 5 -1
BITMAP
C0
C0
00
00
C0
C0
00
00
00
00
00
00
C0
C0
ENDCHAR
STARTCHAR U+2899
ENCODING 10393
SWIDTH 533 0
DWIDTH 8 0
BBX 6 14 1 -1
BITMAP
CC
CC
00
00
0C
0C
00
00
00
00
00
00
0C
0C
ENDCHAR
STARTCHAR U+289A
ENCODING 10394
SWIDTH 533 0
DWIDTH 8 0
BBX 6 14 1 -1
BITMAP
0C
0C
00
00
CC
CC
00
00
00
00
00
00
0C
0C
ENDCHAR
STARTCHAR U+289B
ENCODING 10395
SWIDTH 533 0
DWIDTH 8 0
BBX 6 14 1 -1
BITMAP
CC
CC
00
00
CC
CC
00
00
00
00
00
00
0C
0C
ENDCHAR
STARTCHAR U+289C
ENCODING 10396
SWIDTH 533 0
DWIDTH 8 0
BBX 6 14 1 -1
BITMAP
0C
0C
00
00
0C
0C
00
00
C0
C0
00
00
0C
0C
ENDCHAR
STARTCHAR U+289D
ENCODING 10397
SWIDTH 533 0
DWIDTH 8 0
BBX 6 14 1 -1
BITMAP
CC
CC
00
00
0C
0C
00
00
C0
C0
00
00
0C
0C
ENDCHAR
STARTCHAR U+289E
ENCODING 10398
SWIDTH 533 0
DWIDTH 8 0
BBX 6 14 1 -1
BITMAP
0C
0C
00
00
CC
CC
00
00
C0
C0
00
00
0C
0C
ENDCHAR
STARTCHAR U+289F
ENCODING 10399
SWIDTH 533 0
DWIDTH 8 0
BBX 6 14 1 -1
BITMAP
CC
CC
00
00
CC
CC
00
00
C0
C0
00
00
0C
0C
ENDCHAR
STARTCHAR U+28A0
ENCODING 10400
SWIDTH 533 0
DWIDTH 8 0
BBX 2 6 5 -1
BITMAP
C0
C0
00
00
C0
C0
ENDCHAR
STARTCHAR U+28A1
ENCODING 10401
SWIDTH 533 0
DWIDTH 8 0
BBX 6 14 1 -1
BITMAP
C0
C0
00
00
00
00
00
00
0C
0C
00
00
0C
0C
ENDCHAR
STARTCHAR U+28A2
ENCODING 10402
SWIDTH 533 0
DWIDTH 8 0
BBX 6 10 1 -1
BITMAP
C0
C0
00
00
0C
0C
00
00
0C
0C
ENDCHAR
STARTCHAR U+28A3
ENCODING 10403
SWIDTH 533 0
DWIDTH 8 0
BBX 6 14 1 -1
BITMAP
C0
C0
00
00
C0
C0
00
00
0C
0C
00
00
0C
0C
ENDCHAR
STARTCHAR U+28A4
ENCODING 10404
SWIDTH 533 0
DWIDTH 8 0
BBX 6 6 1 -1
BITMAP
CC
CC
00
00
0C
0C
ENDCHAR
STARTCHAR U+28A5
ENCODING 10405
SWIDTH 533 0
DWIDTH 8 0
BBX 6 14 1 -1
BITMAP
C0
C0
00
00
00
00
00
00
CC
CC
00
00
0C
0C
ENDCHAR
STARTCHAR U+28A6
ENCODING 10406
SWIDTH 533 0
DWIDTH 8 0
BBX 6 10 1 -1
BITMAP
C0
C0
00
00
CC
CC
00
00
0C
0C
ENDCHAR
STARTCHAR U+28A7
ENCODING 10407
SWIDTH 533 0
DWIDTH 8 0
BBX 6 14 1 -1
BITMAP
C0
C0
00
00
C0
C0
00
00
CC
CC
00
00
0C
0C
ENDCHAR
STARTCHAR U+28A8
ENCODING 10408
SWIDTH 533 0
DWIDTH 8 0
BBX 2 14 5 -1
BITMAP
C0
C0
00
00
00
00
00
00
C0
C0
00
00
C0
C0
ENDCHAR
STARTCHAR U+28A9
ENCODING 10409
SWIDTH 533 0
DWIDTH 8 0
BBX 6 14 1 -1
BITMAP
CC
CC
00
00
00
00
00
00
0C
0C
00
00
0C
0C
ENDCHAR
STARTCHAR U+28AA
ENCODING 10410
SWIDTH 533 0
DWIDTH 8 0
BBX 6 14 1 -1
BITMAP
0C
0C
00
00
C0
C0
00
00
0C
0C
00
00
0C
0C
ENDCHAR
STARTCHAR U+28AB
ENCODING 10411
SWIDTH 533 0
DWIDTH 8 0
BBX 6 14 1 -1
BITMAP
CC
CC
00
00
C0
C0
00
00
0C
0C
00
00
0C
0C
ENDCHAR
STARTCHAR U+28AC
ENCODING 10412
SWIDTH 533 0
DWIDTH 8 0
BBX 6 14 1 -1
BITMAP
0C
0C
00
00
00
00
00
00
CC
CC
00
00
0C
0C
ENDCHAR
STARTCHAR U+28AD
ENCODING 10413
SWIDTH 533 0
DWIDTH 8 0
BBX 6 14 1 -1
BITMAP
CC
CC
00
00
00
00
00
00
CC
CC
00
00
0C
0C
ENDCHAR
STARTCHAR U+28AE
ENCODING 10414
SWIDTH 533 0
DWIDTH 8 0
BBX 6 14 1 -1
BITMAP
0C
0C
00
00
C0
C0
00
00
CC
CC
00
00
0C
0C
ENDCHAR
STARTCHAR U+28AF
ENCODING 10415
SWIDTH 533 0
DWIDTH 8 0
BBX 6 14 1 -1
BITMAP
CC
CC
00
00
C0
C0
00
00
CC
CC
00
00
0C
0C
ENDCHAR
STARTCHAR U+28B0
ENCODING 10416
SWIDTH 533 0
DWIDTH 8 0
BBX 2 10 5 -1
BITMAP
C0
C0
00
00
C0
C0
00
00
C0
C0
ENDCHAR
STARTCHAR U+28B1
ENCODING 10417
SWIDTH 533 0
DWIDTH 8 0
BBX 6 14 1 -1
BITMAP
C0
C0
00
00
0C
0C
00
00
0C
0C
00
00
0C
0C
ENDCHAR
STARTCHAR U+28B2
ENCODING 10418
SWIDTH 533 0
DWIDTH 8 0
BBX 6 10 1 -1
BITMAP
CC
CC
00
00
0C
0C
00
00
0C
0C
ENDCHAR
STARTCHAR U+28B3
ENCODING 10419
SWIDTH 533 0
DWIDTH 8 0
BBX 6 14 1 -1
BITMAP
C0
C0
00
00
CC
CC
00
00
0C
0C
00
00
0C
0C
ENDCHAR
STARTCHAR U+28B4
ENCODING 10420
SWIDTH 533 0
DWIDTH 8 0
BBX 6 10 1 -1
BITMAP
0C
0C
00
00
CC
CC
00
00
0C
0C
ENDCHAR
STARTCHAR U+28B5
ENCODING 10421
SWIDTH 533 0
DWIDTH 8 0
BBX 6 14 1 -1
BITMAP
C0
C0
00
00
0C
0C
00
00
CC
CC
00
00
0C
0C
ENDCHAR
STARTCHAR U+28B6
ENCODING 10422
SWIDTH 533 0
DWIDTH 8 0
BBX 6 10 1 -1
BITMAP
CC
CC
00
00
CC
CC
00
00
0C
0C
ENDCHAR
STARTCHAR U+28B7
ENCODING 10423
SWIDTH 533 0
DWIDTH 8 0
BBX 6 14 1 -1
BITMAP
C0
C0
00
00
CC
CC
00
00
CC
CC
00
00
0C
0C
ENDCHAR
STARTCHAR U+28B8
ENCODING 10424
SWIDTH 533 0
DWIDTH 8 0
BBX 2 14 5 -1
BITMAP
C0
C0
00
00
C0
C0
00
00
C0
C0
00
00
C0
C0
ENDCHAR
STARTCHAR U+28B9
ENCODING 10425
SWIDTH 533 0
DWIDTH 8 0
BBX 6 14 1 -1
BITMAP
CC
CC
00
00
0C
0C
00
00
0C
0C
00
00
0C
0C
ENDCHAR
STARTCHAR U+28BA
ENCODING 10426
SWIDTH 533 0
DWIDTH 8 0
BBX 6 14 1 -1
BITMAP
0C
0C
00
00
CC
CC
00
00
0C
0C
00
00
0C
0C
ENDCHAR
STARTCHAR U+28BB
ENCODING 10427
SWIDTH 533 0
DWIDTH 8 0
BBX 6 14 1 -1
BITMAP
CC
CC
00
00
CC
CC
00
00
0C
0C
00
00
0C
0C
ENDCHAR
STARTCHAR U+28BC
ENCODING 10428
SWIDTH 533 0
DWIDTH 8 0
BBX 6 14 1 -1
BITMAP
0C
0C
00
00
0C
0C
00
00
CC
CC
00
00
0C
0C
ENDCHAR
STARTCHAR U+28BD
ENCODING 10429
SWIDTH 533 0
DWIDTH 8 0
BBX 6 14 1 -1
BITMAP
CC
CC
00
00
0C
0C
00
00
CC
CC
00
00
0C
0C
ENDCHAR
STARTCHAR U+28BE
ENCODING 10430
SWIDTH 533 0
DWIDTH 8 0
BBX 6 14 1 -1
BITMAP
0C
0C
00
00
CC
CC
00
00
CC
CC
00
00
0C
0C
ENDCHAR
STARTCHAR U+28BF
ENCODING 10431
SWIDTH 533 0
DWIDTH 8 0
BBX 6 14 1 -1
BITMAP
CC
CC
00
00
CC
CC
00
00
CC
CC
00
00
0C
0C
ENDCHAR
STARTCHAR U+28C0
ENCODING 10432
SWIDTH 533 0
DWIDTH 8 0
BBX 6 2 1 -1
BITMAP
CC
CC
ENDCHAR
STARTCHAR U+28C1
ENCODING 10433
SWIDTH 533 0
DWIDTH 8 0
BBX 6 14 1 -1
BITMAP
C0
C0
00
00
00
00
00
00
00
00
00
00
CC
CC
ENDCHAR
STARTCHAR U+28C2
ENCODING 10434
SWIDTH 533 0
DWIDTH 8 0
BBX 6 10 1 -1
BITMAP
C0
C0
00
00
00
00
00
00
CC
CC
ENDCHAR
STARTCHAR U+28C3
ENCODING 10435
SWIDTH 533 0
DWIDTH 8 0
BBX 6 14 1 -1
BITMAP
C0
C0
00
00
C0
C0
00
00
00
00
00
00
CC
CC
ENDCHAR
STARTCHAR U+28C4
ENCODING 10436
SWIDTH 533 0
DWIDTH 8 0
BBX 6 6 1 -1
BITMAP
C0
C0
00
00
CC
CC
ENDCHAR
STARTCHAR U+28C5
ENCODING 10437
SWIDTH 533 0
DWIDTH 8 0
BBX 6 14 1 -1
BITMAP
C0
C0
00
00
00
00
00
00
C0
C0
00
00
CC
CC
ENDCHAR
STARTCHAR U+28C6
ENCODING 10438
SWIDTH 533 0
DWIDTH 8 0
BBX 6 10 1 -1
BITMAP
C0
C0
00
00
C0
C0
00
00
CC
CC
ENDCHAR
STARTCHAR U+28C7
ENCODING 10439
SWIDTH 533 0
DWIDTH 8 0
BBX 6 14 1 -1
BITMAP
C0
C0
00
00
C0
C0
00
00
C0
C0
00
00
CC
CC
ENDCHAR
STARTCHAR U+28C8
ENCODING 10440
SWIDTH 533 0
DWIDTH 8 0
BBX 6 14 1 -1
BITMAP
0C
0C
00
00
00
00
00
00
00
00
00
00
CC
CC
ENDCHAR
STARTCHAR U+28C9
ENCODING 10441
SWIDTH 533 0
DWIDTH 8 0
BBX 6 14 1 -1
BITMAP
CC
CC
00
00
00
00
00
00
00
00
00
00
CC
CC
ENDCHAR
STARTCHAR U+28CA
ENCODING 10442
SWIDTH 533 0
DWIDTH 8 0
BBX 6 14 1 -1
BITMAP
0C
0C
00
00
C0
C0
00
00
00
00
00
00
CC
CC
ENDCHAR
STARTCHAR U+28CB
ENCODING 10443
SWIDTH 533 0
DWIDTH 8 0
BBX 6 14 1 -1
BITMAP
CC
CC
00
00
C0
C0
00
00
00
00
00
00
CC
CC
ENDCHAR
STARTCHAR U+28CC
ENCODING 10444
SWIDTH 533 0
DWIDTH 8 0
BBX 6 14 1 -1
BITMAP
0C
0C
00
00
00
00
00
00
C0
C0
00
00
CC
CC
ENDCHAR
STARTCHAR U+28CD
ENCODING 10445
SWIDTH 533 0
DWIDTH 8 0
BBX 6 14 1 -1
BITMAP
CC
CC
00
00
00
00
00
00
C0
C0
00
00
CC
CC
ENDCHAR
STARTCHAR U+28CE
ENCODING 10446
SWIDTH 533 0
DWIDTH 8 0
BBX 6 14 1 -1
BITMAP
0C
0C
00
00
C0
C0
00
00
C0
C0
00
00
CC
CC
ENDCHAR
STARTCHAR U+28CF
ENCODING 10447
SWIDTH 533 0
DWIDTH 8 0
BBX 6 14 1 -1
BITMAP
CC
CC
00
00
C0
C0
00
00
C0
C0
00
00
CC
CC
ENDCHAR
STARTCHAR U+28D0
ENCODING 10448
SWIDTH 533 0
DWIDTH 8 0
BBX 6 10 1 -1
BITMAP
0C
0C
00
00
00
00
00
00
CC
CC
ENDCHAR
STARTCHAR U+28D1
ENCODING 10449
SWIDTH 533 0
DWIDTH 8 0
BBX 6 14 1 -1
BITMAP
C0
C0
00
00
0C
0C
00
00
00
00
00
00
CC
CC
ENDCHAR
STARTCHAR U+28D2
ENCODING 10450
SWIDTH 533 0
DWIDTH 8 0
BBX 6 10 1 -1
BITMAP
CC
CC
00
00
00
00
00
00
CC
CC
ENDCHAR
STARTCHAR U+28D3
ENCODING 10451
SWIDTH 533 0
DWIDTH 8 0
BBX 6 14 1 -1
BITMAP
C0
C0
00
00
CC
CC
00
00
00
00
00
00
CC
CC
ENDCHAR
STARTCHAR U+28D4
ENCODING 10452
SWIDTH 533 0
DWIDTH 8 0
BBX 6 10 1 -1
BITMAP
0C
0C
00
00
C0
C0
00
00
CC
CC
ENDCHAR
STARTCHAR U+28D5
ENCODING 10453
SWIDTH 533 0
DWIDTH 8 0
BBX 6 14 1 -1
BITMAP
C0
C0
00
00
0C
0C
00
00
C0
C0
00
00
CC
CC
ENDCHAR
STARTCHAR U+28D6
ENCODING 10454
SWIDTH 533 0
DWIDTH 8 0
BBX 6 10 1 -1
BITMAP
CC
CC
00
00
C0
C0
00
00
CC
CC
ENDCHAR
STARTCHAR U+28D7
ENCODING 10455
SWIDTH 533 0
DWIDTH 8 0
BBX 6 14 1 -1
BITMAP
C0
C0
00
00
CC
CC
00
00
C0
C0
00
00
CC
CC
ENDCHAR
STARTCHAR U+28D8
ENCODING 10456
SWIDTH 533 0
DWIDTH 8 0
BBX 6 14 1 -1
BITMAP
0C
0C
00
00
0C
0C
00
00
00
00
00
00
CC
CC
ENDCHAR
STARTCHAR U+28D9
ENCODING 10457
SWIDTH 533 0
DWIDTH 8 0
BBX 6 14 1 -1
BITMAP
CC
CC
00
00
0C
0C
00
00
00
00
00
00
CC
CC
ENDCHAR
STARTCHAR U+28DA
ENCODING 10458
SWIDTH 533 0
DWIDTH 8 0
BBX 6 14 1 -1
BITMAP
0C
0C
00
00
CC
CC
00
00
00
00
00
00
CC
CC
ENDCHAR
STARTCHAR U+28DB
ENCODING 10459
SWIDTH 533 0
DWIDTH 8 0
BBX 6 14 1 -1
BITMAP
CC
CC
00
00
CC
CC
00
00
00
00
00
00
CC
CC
ENDCHAR
STARTCHAR U+28DC
ENCODING 10460
SWIDTH 533 0
DWIDTH 8 0
BBX 6 14 1 -1
BITMAP
0C
0C
00
00
0C
0C
00
00
C0
C0
00
00
CC
CC
ENDCHAR
STARTCHAR U+28DD
ENCODING 10461
SWIDTH 533 0
DWIDTH 8 0
BBX 6 14 1 -1
BITMAP
CC
CC
00
00
0C
0C
00
00
C0
C0
00
00
CC
CC
ENDCHAR
STARTCHAR U+28DE
ENCODING 10462
SWIDTH 533 0
DWIDTH 8 0
BBX 6 14 1 -1
BITMAP
0C
0C
00
00
CC
CC
00
00
C0
C0
00
00
CC
CC
ENDCHAR
STARTCHAR U+28DF
ENCODING 10463
SWIDTH 533 0
DWIDTH 8 0
BBX 6 14 1 -1
BITMAP
CC
CC
00
00
CC
CC
00
00
C0
C0
00
00
CC
CC
ENDCHAR
STARTCHAR U+28E0
ENCODING 10464
SWIDTH 533 0
DWIDTH 8 0
BBX 6 6 1 -1
BITMAP
0C
0C
00
00
CC
CC
ENDCHAR
STARTCHAR U+28E1
ENCODING 10465
SWIDTH 533 0
DWIDTH 8 0
BBX 6 14 1 -1
BITMAP
C0
C0
00
00
00
00
00
00
0C
0C
00
00
CC
CC
ENDCHAR
STARTCHAR U+28E2
ENCODING 10466
SWIDTH 533 0
DWIDTH 8 0
BBX 6 10 1 -1
BITMAP
C0
C0
00
00
0C
0C
00
00
CC
CC
ENDCHAR
STARTCHAR U+28E3
ENCODING 10467
SWIDTH 533 0
DWIDTH 8 0
BBX 6 14 1 -1
BITMAP
C0
C0
00
00
C0
C0
00
00
0C
0C
00
00
CC
CC
ENDCHAR
STARTCHAR U+28E4
ENCODING 10468
SWIDTH 533 0
DWIDTH 8 0
BBX 6 6 1 -1
BITMAP
CC
CC
00
00
CC
CC
ENDCHAR
STARTCHAR U+28E5
ENCODING 10469
SWIDTH 533 0
DWIDTH 8 0
BBX 6 14 1 -1
BITMAP
C0
C0
00
00
00
00
00
00
CC
CC
00
00
CC
CC
ENDCHAR
STARTCHAR U+28E6
ENCODING 10470
SWIDTH 533 0
DWIDTH 8 0
BBX 6 10 1 -1
BITMAP
C0
C0
00
00
CC
CC
00
00
CC
CC
ENDCHAR
STARTCHAR U+28E7
ENCODING 10471
SWIDTH 533 0
DWIDTH 8 0
BBX 6 14 1 -1
BITMAP
C0
C0
00
00
C0
C0
00
00
CC
CC
00
00
CC
CC
ENDCHAR
STARTCHAR U+28E8
ENCODING 10472
SWIDTH 533 0
DWIDTH 8 0
BBX 6 14 1 -1
BITMAP
0C
0C
00
00
00
00
00
00
0C
0C
00
00
CC
CC
ENDCHAR
STARTCHAR U+28E9
ENCODING 10473
SWIDTH 533 0
DWIDTH 8 0
BBX 6 14 1 -1
BITMAP
CC
CC
00
00
00
00
00
00
0C
0C
00
00
CC
CC
ENDCHAR
STARTCHAR U+28EA
ENCODING 10474
SWIDTH 533 0
DWIDTH 8 0
BBX 6 14 1 -1
BITMAP
0C
0C
00
00
C0
C0
00
00
0C
0C
00
00
CC
CC
ENDCHAR
STARTCHAR U+28EB
ENCODING 10475
SWIDTH 533 0
DWIDTH 8 0
BBX 6 14 1 -1
BITMAP
CC
CC
00
00
C0
C0
00
00
0C
0C
00
00
CC
CC
ENDCHAR
STARTCHAR U+28EC
ENCODING 10476
SWIDTH 533 0
DWIDTH 8 0
BBX 6 14 1 -1
BITMAP
0C
0C
00
00
00
00
00
00
CC
CC
00
00
CC
CC
ENDCHAR
STARTCHAR U+28ED
ENCODING 10477
SWIDTH 533 0
DWIDTH 8 0
BBX 6 14 1 -1
BITMAP
CC
CC
00
00
00
00
00
00
CC
CC
00
00
CC
CC
ENDCHAR
STARTCHAR U+28EE
ENCODING 10478
SWIDTH 533 0
DWIDTH 8 0
BBX 6 14 1 -1
BITMAP
0C
0C
00
00
C0
C0
00
00
CC
CC
00
00
CC
CC
ENDCHAR
STARTCHAR U+28EF
ENCODING 10479
SWIDTH 533 0
DWIDTH 8 0
BBX 6 14 1 -1
BITMAP
CC
CC
00
00
C0
C0
00
00
CC
CC
00
00
CC
CC
ENDCHAR
STARTCHAR U+28F0
ENCODING 10480
SWIDTH 533 0
DWIDTH 8 0
BBX 6 10 1 -1
BITMAP
0C
0C
00
00
0C
0C
00
00
CC
CC
ENDCHAR
STARTCHAR U+28F1
ENCODING 10481
SWIDTH 533 0
DWIDTH 8 0
BBX 6 14 1 -1
BITMAP
C0
C0
00
00
0C
0C
00
00
0C
0C
00
00
CC
CC
ENDCHAR
STARTCHAR U+28F2
ENCODING 10482
SWIDTH 533 0
DWIDTH 8 0
BBX 6 10 1 -1
BITMAP
CC
CC
00
00
0C
0C
00
00
CC
CC
ENDCHAR
STARTCHAR U+28F3
ENCODING 10483
SWIDTH 533 0
DWIDTH 8 0
BBX 6 14 1 -1
BITMAP
C0
C0
00
00
CC
CC
00
00
0C
0C
00
00
CC
CC
ENDCHAR
STARTCHAR U+28F4
ENCODING 10484
SWIDTH 533 0
DWIDTH 8 0
BBX 6 10 1 -1
BITMAP
0C
0C
00
00
CC
CC
00
00
CC
CC
ENDCHAR
STARTCHAR U+28F5
ENCODING 10485
SWIDTH 533 0
DWIDTH 8 0
BBX 6 14 1 -1
BITMAP
C0
C0
00
00
0C
0C
00
00
CC
CC
00
00
CC
CC
ENDCHAR
STARTCHAR U+28F6
ENCODING 10486
SWIDTH 533 0
DWIDTH 8 0
BBX 6 10 1 -1
BITMAP
CC
CC
00
00
CC
CC
00
00
CC
CC
ENDCHAR
STARTCHAR U+28F7
ENCODING 10487
SWIDTH 533 0
DWIDTH 8 0
BBX 6 14 1 -1
BITMAP
C0
C0
00
00
CC
CC
00
00
CC
CC
00
00
CC
CC
ENDCHAR
STARTCHAR U+28F8
ENCODING 10488
SWIDTH 533 0
DWIDTH 8 0
BBX 6 14 1 -1
BITMAP
0C
0C
00
00
0C
0C
00
00
0C
0C
00
00
CC
CC
ENDCHAR
STARTCHAR U+28F9
ENCODING 10489
SWIDTH 533 0
DWIDTH 8 0
BBX 6 14 1 -1
BITMAP
CC
CC
00
00
0C
0C
00
00
0C
0C
00
00
CC
CC
ENDCHAR
STARTCHAR U+28FA
ENCODING 10490
SWIDTH 533 0
DWIDTH 8 0
BBX 6 14 1 -1
BITMAP
0C
0C
00
00
CC
CC
00
00
0C
0C
00
00
CC
CC
ENDCHAR
STARTCHAR U+28FB
ENCODING 10491
SWIDTH 533 0
DWIDTH 8 0
BBX 6 14 1 -1
BITMAP
CC
CC
00
00
CC
CC
00
00
0C
0C
00
00
CC
CC
ENDCHAR
STARTCHAR U+28FC
ENCODING 10492
SWIDTH 533 0
DWIDTH 8 0
BBX 6 14 1 -1
BITMAP
0C
0C
00
00
0C
0C
00
00
CC
CC
00
00
CC
CC
ENDCHAR
STARTCHAR U+28FD
ENCODING 10493
SWIDTH 533 0
DWIDTH 8 0
BBX 6 14 1 -1
BITMAP
CC
CC
00
00
0C
0C
00
00
CC
CC
00
00
CC
CC
ENDCHAR
STARTCHAR U+28FE
ENCODING 10494
SWIDTH 533 0
DWIDTH 8 0
BBX 6 14 1 -1
BITMAP
0C
0C
00
00
CC
CC
00
00
CC
CC
00
00
CC
CC
ENDCHAR
STARTCHAR U+28FF
ENCODING 10495
SWIDTH 533 0
DWIDTH 8 0
BBX 6 14 1 -1
BITMAP
CC
CC
00
00
CC
CC
00
00
CC
CC
00
00
CC
CC
ENDCHAR
STARTCHAR U+2B1A
ENCODING 11034
SWIDTH 533 0
DWIDTH 8 0
BBX 8 8 0 1
BITMAP
AA
01
80
01
80
01
80
55
ENDCHAR
STARTCHAR U+2B1B
ENCODING 11035
SWIDTH 533 0
DWIDTH 8 0
BBX 8 8 0 1
BITMAP
FF
FF
FF
FF
FF
FF
FF
FF
ENDCHAR
STARTCHAR U+3001
ENCODING 12289
SWIDTH 1066 0
DWIDTH 16 0
BBX 0 0 0 0
BITMAP
ENDCHAR
STARTCHAR U+3002
ENCODING 12290
SWIDTH 1066 0
DWIDTH 16 0
BBX 0 0 0 0
BITMAP
ENDCHAR
STARTCHAR U+3003
ENCODING 12291
SWIDTH 1066 0
DWIDTH 16 0
BBX 0 0 0 0
BITMAP
ENDCHAR
STARTCHAR U+3005
ENCODING 12293
SWIDTH 1066 0
DWIDTH 16 0
BBX 12 13 1 -1
BITMAP
0400
0400
07E0
0810
0810
1010
2020
C020
0C40
0380
0100
0080
0060
ENDCHAR
STARTCHAR U+3006
ENCODING 12294
SWIDTH 1066 0
DWIDTH 16 0
BBX 13 13 1 -1
BITMAP
0008
0008
0010
0020
0020
1840
2480
4300
4100
8280
8440
8820
7020
ENDCHAR
STARTCHAR U+3007
ENCODING 12295
SWIDTH 1066 0
DWIDTH 16 0
BBX 14 13 1 -1
BITMAP
0780
1860
2010
4008
4008
8004
8004
8004
4008
4008
2010
1860
0780
ENDCHAR
STARTCHAR U+3008
ENCODING 12296
SWIDTH 1066 0
DWIDTH 16 0
BBX 4 14 9 -1
BITMAP
10
10
20
20
40
40
80
80
40
40
20
20
10
10
ENDCHAR
STARTCHAR U+3009
ENCODING 12297
SWIDTH 1066 0
DWIDTH 16 0
BBX 4 14 3 -1
BITMAP
80
80
40
40
20
20
10
10
20
20
40
40
80
80
ENDCHAR
STARTCHAR U+300A
ENCODING 12298
SWIDTH 1066 0
DWIDTH 16 0
BBX 7 14 6 -1
BITMAP
12
12
24
24
48
48
90
90
48
48
24
24
12
12
ENDCHAR
STARTCHAR U+300B
ENCODING 12299
SWIDTH 1066 0
DWIDTH 16 0
BBX 7 14 3 -1
BITMAP
90
90
48
48
24
24
12
12
24
24
48
48
90
90
ENDCHAR
STARTCHAR U+300C
ENCODING 12300
SWIDTH 1066 0
DWIDTH 16 0
BBX 5 10 9 3
BITMAP
F8
80
80
80
80
80
80
80
80
80
ENDCHAR
STARTCHAR U+300D
ENCODING 12301
SWIDTH 1066 0
DWIDTH 16 0
BBX 5 10 2 -1
BITMAP
08
08
08
08
08
08
08
08
08
F8
ENDCHAR
STARTCHAR U+300E
ENCODING 12302
SWIDTH 1066 0
DWIDTH 16 0
BBX 5 10 9 3
BITMAP
F8
88
B8
A0
A0
A0
A0
A0
A0
E0
ENDCHAR
STARTCHAR U+300F
ENCODING 12303
SWIDTH 1066 0
DWIDTH 16 0
BBX 5 10 2 -1
BITMAP
38
28
28
28
28
28
28
E8
88
F8
ENDCHAR
STARTCHAR U+3010
ENCODING 12304
SWIDTH 1066 0
DWIDTH 16 0
BBX 5 15 9 -2
BITMAP
F8
F0
E0
E0
C0
C0
C0
C0
C0
C0
C0
E0
E0
F0
F8
ENDCHAR
STARTCHAR U+3011
ENCODING 12305
SWIDTH 1066 0
DWIDTH 16 0
BBX 5 15 2 -2
BITMAP
F8
78
38
38
18
18
18
18
18
18
18
38
38
78
F8
ENDCHAR
STARTCHAR U+301C
ENCODING 12316
SWIDTH 1066 0
DWIDTH 16 0
BBX 0 0 0 0
BITMAP
ENDCHAR
STARTCHAR U+E0A0
ENCODING 57504
SWIDTH 533 0
DWIDTH 8 0
BBX 6 13 1 -1
BITMAP
80
88
9C
88
88
88
90
20
40
80
80
80
80
ENDCHAR
STARTCHAR U+E0A1
ENCODING 57505
SWIDTH 533 0
DWIDTH 8 0
BBX 6 13 1 -1
BITMAP
80
80
80
80
80
78
00
44
64
54
54
4C
44
ENDCHAR
STARTCHAR U+E0A2
ENCODING 57506
SWIDTH 533 0
DWIDTH 8 0
BBX 6 13 1 -1
BITMAP
30
48
48
48
48
FC
FC
CC
CC
DC
DC
FC
FC
ENDCHAR
STARTCHAR U+E0A3
ENCODING 57507
SWIDTH 533 0
DWIDTH 8 0
BBX 6 13 1 -1
BITMAP
70
88
80
80
88
70
00
44
64
54
54
4C
44
ENDCHAR
STARTCHAR U+E0B0
ENCODING 57520
SWIDTH 533 0
DWIDTH 8 0
BBX 8 16 0 -2
BITMAP
80
C0
E0
F0
F8
FC
FE
FF
FF
FE
FC
F8
F0
E0
C0
80
ENDCHAR
STARTCHAR U+E0B1
ENCODING 57521
SWIDTH 533 0
DWIDTH 8 0
BBX 8 16 0 -2
BITMAP
80
C0
60
30
18
0C
06
03
03
06
0C
18
30
60
C0
80
ENDCHAR
STARTCHAR U+E0B2
ENCODING 57522
SWIDTH 533 0
DWIDTH 8 0
BBX 8 16 0 -2
BITMAP
01
03
07
0F
1F
3F
7F
FF
FF
7F
3F
1F
0F
07
03
01
ENDCHAR
STARTCHAR U+E0B3
ENCODING 57523
SWIDTH 533 0
DWIDTH 8 0
BBX 8 16 0 -2
BITMAP
01
03
06
0C
18
30
60
C0
C0
60
30
18
0C
06
03
01
ENDCHAR
STARTCHAR U+E0B4
ENCODING 57524
SWIDTH 533 0
DWIDTH 8 0
BBX 8 16 0 -2
BITMAP
E0
F8
FC
FE
FE
FF
FF
FF
FF
FF
FF
FE
FE
FC
F8
E0
ENDCHAR
STARTCHAR U+E0B5
ENCODING 57525
SWIDTH 533 0
DWIDTH 8 0
BBX 8 16 0 -2
BITMAP
E0
18
04
02
02
01
01
01
01
01
01
02
02
04
18
E0
ENDCHAR
STARTCHAR U+E0B6
ENCODING 57526
SWIDTH 533 0
DWIDTH 8 0
BBX 8 16 0 -2
BITMAP
07
1F
3F
7F
7F
FF
FF
FF
FF
FF
FF
7F
7F
3F
1F
07
ENDCHAR
STARTCHAR U+E0B7
ENCODING 57527
SWIDTH 533 0
DWIDTH 8 0
BBX 8 16 0 -2
BITMAP
07
18
20
40
40
80
80
80
80
80
80
40
40
20
18
07
ENDCHAR
STARTCHAR U+E0B8
ENCODING 57528
SWIDTH 533 0
DWIDTH 8 0
BBX 8 16 0 -2
BITMAP
80
80
C0
C0
E0
E0
F0
F0
F8
F8
FC
FC
FE
FE
FF
FF
ENDCHAR
STARTCHAR U+E0B9
ENCODING 57529
SWIDTH 533 0
DWIDTH 8 0
BBX 8 16 0 -2
BITMAP
80
80
40
40
20
20
10
10
08
08
04
04
02
02
01
01
ENDCHAR
STARTCHAR U+E0BA
ENCODING 57530
SWIDTH 533 0
DWIDTH 8 0
BBX 8 16 0 -2
BITMAP
01
01
03
03
07
07
0F
0F
1F
1F
3F
3F
7F
7F
FF
FF
ENDCHAR
STARTCHAR U+E0BB
ENCODING 57531
SWIDTH 533 0
DWIDTH 8 0
BBX 8 16 0 -2
BITMAP
01
01
02
02
04
04
08
08
10
10
20
20
40
40
80
80
ENDCHAR
STARTCHAR U+E0BC
ENCODING 57532
SWIDTH 533 0
DWIDTH 8 0
BBX 8 16 0 -2
BITMAP
FF
FF
FE
FE
FC
FC
F8
F8
F0
F0
E0
E0
C0
C0
80
80
ENDCHAR
STARTCHAR U+E0BD
ENCODING 57533
SWIDTH 533 0
DWIDTH 8 0
BBX 8 16 0 -2
BITMAP
01
01
02
02
04
04
08
08
10
10
20
20
40
40
80
80
ENDCHAR
STARTCHAR U+E0BE
ENCODING 57534
SWIDTH 533 0
DWIDTH 8 0
BBX 8 16 0 -2
BITMAP
FF
FF
7F
7F
3F
3F
1F
1F
0F
0F
07
07
03
03
01
01
ENDCHAR
STARTCHAR U+E0BF
ENCODING 57535
SWIDTH 533 0
DWIDTH 8 0
BBX 8 16 0 -2
BITMAP
80
80
40
40
20
20
10
10
08
08
04
04
02
02
01
01
ENDCHAR
STARTCHAR U+E0D6
ENCODING 57558
SWIDTH 533 0
DWIDTH 8 0
BBX 8 16 0 -2
BITMAP
FF
FE
FC
F8
F0
E0
C0
80
80
C0
E0
F0
F8
FC
FE
FF
ENDCHAR
STARTCHAR U+E0D7
ENCODING 57559
SWIDTH 533 0
DWIDTH 8 0
BBX 8 16 0 -2
BITMAP
FF
7F
3F
1F
0F
07
03
01
01
03
07
0F
1F
3F
7F
FF
ENDCHAR
STARTCHAR U+1CC30
ENCODING 117808
SWIDTH 533 0
DWIDTH 8 0
BBX 5 11 3 -2
BITMAP
08
10
10
20
20
40
40
40
80
80
80
ENDCHAR
STARTCHAR U+1CC31
ENCODING 117809
SWIDTH 533 0
DWIDTH 8 0
BBX 8 5 0 9
BITMAP
07
18
20
40
80
ENDCHAR
STARTCHAR U+1CC32
ENCODING 117810
SWIDTH 533 0
DWIDTH 8 0
BBX 8 5 0 9
BITMAP
E0
18
04
02
01
ENDCHAR
STARTCHAR U+1CC33
ENCODING 117811
SWIDTH 533 0
DWIDTH 8 0
BBX 5 11 0 -2
BITMAP
80
40
40
20
20
10
10
10
08
08
08
ENDCHAR
STARTCHAR U+1CC34
ENCODING 117812
SWIDTH 533 0
DWIDTH 8 0
BBX 4 16 2 -2
BITMAP
10
10
20
20
20
40
40
40
40
80
80
80
80
80
80
80
ENDCHAR
STARTCHAR U+1CC35
ENCODING 117813
SWIDTH 533 0
DWIDTH 8 0
BBX 8 16 0 -2
BITMAP
03
04
08
10
10
20
20
40
40
40
80
80
80
80
80
80
ENDCHAR
STARTCHAR U+1CC36
ENCODING 117814
SWIDTH 533 0
DWIDTH 8 0
BBX 8 16 0 -2
BITMAP
C0
20
10
08
08
04
04
02
02
02
01
01
01
01
01
01
ENDCHAR
STARTCHAR U+1CC37
ENCODING 117815
SWIDTH 533 0
DWIDTH 8 0
BBX 4 16 2 -2
BITMAP
80
80
40
40
40
20
20
20
20
10
10
10
10
10
10
10
ENDCHAR
STARTCHAR U+1CC38
ENCODING 117816
SWIDTH 533 0
DWIDTH 8 0
BBX 4 16 2 -2
BITMAP
80
80
80
80
80
80
80
40
40
40
40
20
20
20
10
10
ENDCHAR
STARTCHAR U+1CC39
ENCODING 117817
SWIDTH 533 0
DWIDTH 8 0
BBX 8 16 0 -2
BITMAP
80
80
80
80
80
80
40
40
40
20
20
10
10
08
04
03
ENDCHAR
STARTCHAR U+1CC3A
ENCODING 117818
SWIDTH 533 0
DWIDTH 8 0
BBX 8 16 0 -2
BITMAP
01
01
01
01
01
01
02
02
02
04
04
08
08
10
20
C0
ENDCHAR
STARTCHAR U+1CC3B
ENCODING 117819
SWIDTH 533 0
DWIDTH 8 0
BBX 4 16 2 -2
BITMAP
10
10
10
10
10
10
10
20
20
20
20
40
40
40
80
80
ENDCHAR
STARTCHAR U+1CC3C
ENCODING 117820
SWIDTH 533 0
DWIDTH 8 0
BBX 5 11 3 3
BITMAP
80
80
80
40
40
40
20
20
10
10
08
ENDCHAR
STARTCHAR U+1CC3D
ENCODING 117821
SWIDTH 533 0
DWIDTH 8 0
BBX 8 5 0 -2
BITMAP
80
40
20
18
07
ENDCHAR
STARTCHAR U+1CC3E
ENCODING 117822
SWIDTH 533 0
DWIDTH 8 0
BBX 8 5 0 -2
BITMAP
01
02
04
18
E0
ENDCHAR
STARTCHAR U+1CC3F
ENCODING 117823
SWIDTH 533 0
DWIDTH 8 0
BBX 5 11 0 3
BITMAP
08
08
08
10
10
10
20
20
40
40
80
ENDCHAR
STARTCHAR U+1CC40
ENCODING 117824
SWIDTH 533 0
DWIDTH 8 0
BBX 7 13 0 0
BITMAP
FE
00
00
FE
00
00
FE
00
00
FE
00
00
FE
ENDCHAR
STARTCHAR U+1CC41
ENCODING 117825
SWIDTH 533 0
DWIDTH 8 0
BBX 4 16 2 -2
BITMAP
90
90
90
90
90
90
90
90
90
90
90
90
90
90
90
90
ENDCHAR
STARTCHAR U+1CC42
ENCODING 117826
SWIDTH 533 0
DWIDTH 8 0
BBX 7 16 0 -2
BITMAP
54
FE
54
54
FE
54
54
FE
54
54
FE
54
54
FE
54
54
ENDCHAR
STARTCHAR U+1CC43
ENCODING 117827
SWIDTH 533 0
DWIDTH 8 0
BBX 7 16 0 -2
BITMAP
AA
AA
54
54
AA
AA
54
54
AA
AA
54
54
AA
AA
54
54
ENDCHAR
STARTCHAR U+1CC44
ENCODING 117828
SWIDTH 533 0
DWIDTH 8 0
BBX 5 16 1 -2
BITMAP
A8
A8
A8
A8
A8
A8
A8
A8
A8
A8
A8
A8
A8
A8
A8
A8
ENDCHAR
STARTCHAR U+1CC45
ENCODING 117829
SWIDTH 533 0
DWIDTH 8 0
BBX 7 13 0 0
BITMAP
FE
00
FE
00
FE
00
FE
00
FE
00
FE
00
FE
ENDCHAR
STARTCHAR U+100000
ENCODING 1048576
SWIDTH 1066 0
DWIDTH 16 0
BBX 14 9 1 0
BITMAP
0040
0020
0010
0008
FFFC
0008
0010
0020
0040
ENDCHAR
STARTCHAR U+100001
ENCODING 1048577
SWIDTH 1066 0
DWIDTH 16 0
BBX 14 9 1 0
BITMAP
0040
0020
FFF0
0008
0004
0008
FFF0
0020
0040
ENDCHAR
ENDFONT
